Lora Devanarari-Regular.ufo
<glyph name="parenright" format="1">
  <advance width="305"/>
  <unicode hex="0029"/>
  <outline>
    <contour>
      <point x="18" y="737" type="line"/>
      <point x="121" y="600"/>
      <point x="169" y="438"/>
      <point x="169" y="250" type="curve" smooth="yes"/>
      <point x="169" y="62"/>
      <point x="121" y="-111"/>
      <point x="18" y="-248" type="curve"/>
      <point x="43" y="-271" type="line"/>
      <point x="142" y="-180"/>
      <point x="270" y="28"/>
      <point x="270" y="250" type="curve" smooth="yes"/>
      <point x="270" y="472"/>
      <point x="142" y="669"/>
      <point x="43" y="760" type="curve"/>
    </contour>
  </outline>
</glyph>
<glyph name="three" format="1">
  <advance width="557"/>
  <unicode hex="0033"/>
  <outline>
    <contour>
      <point x="127" y="716"/>
      <point x="61" y="627"/>
      <point x="61" y="572" type="curve" smooth="yes"/>
      <point x="61" y="544"/>
      <point x="76" y="521"/>
      <point x="104" y="521" type="curve" smooth="yes"/>
      <point x="138" y="520"/>
      <point x="150" y="548"/>
      <point x="150" y="564" type="curve" smooth="yes"/>
      <point x="150" y="578"/>
      <point x="146" y="592"/>
      <point x="134" y="605" type="curve"/>
      <point x="145" y="638"/>
      <point x="191" y="677"/>
      <point x="251" y="677" type="curve" smooth="yes"/>
      <point x="343" y="677"/>
      <point x="370" y="616"/>
      <point x="370" y="534" type="curve" smooth="yes"/>
      <point x="370" y="479"/>
      <point x="336" y="392"/>
      <point x="231" y="392" type="curve" smooth="yes"/>
      <point x="190" y="392" type="line"/>
      <point x="190" y="347" type="line"/>
      <point x="204" y="348"/>
      <point x="216" y="349"/>
      <point x="227" y="349" type="curve" smooth="yes"/>
      <point x="373" y="352"/>
      <point x="404" y="266"/>
      <point x="404" y="178" type="curve" smooth="yes"/>
      <point x="404" y="79"/>
      <point x="343" y="26"/>
      <point x="248" y="26" type="curve" smooth="yes"/>
      <point x="193" y="26"/>
      <point x="139" y="45"/>
      <point x="126" y="90" type="curve"/>
      <point x="132" y="103"/>
      <point x="137" y="116"/>
      <point x="137" y="130" type="curve" smooth="yes"/>
      <point x="137" y="148"/>
      <point x="126" y="177"/>
      <point x="90" y="175" type="curve" smooth="yes"/>
      <point x="60" y="174"/>
      <point x="44" y="150"/>
      <point x="44" y="120" type="curve" smooth="yes"/>
      <point x="44" y="61"/>
      <point x="111" y="-16"/>
      <point x="255" y="-16" type="curve" smooth="yes"/>
      <point x="386" y="-16"/>
      <point x="507" y="49"/>
      <point x="507" y="185" type="curve" smooth="yes"/>
      <point x="507" y="289"/>
      <point x="429" y="361"/>
      <point x="303" y="375" type="curve"/>
      <point x="303" y="375" type="line"/>
      <point x="426" y="413"/>
      <point x="467" y="479"/>
      <point x="467" y="542" type="curve" smooth="yes"/>
      <point x="467" y="668"/>
      <point x="372" y="716"/>
      <point x="265" y="716" type="curve" smooth="yes"/>
    </contour>
  </outline>
</glyph>
<glyph name="S" format="1">
  <advance width="567"/>
  <unicode hex="0053"/>
  <outline>
    <contour>
      <point x="101" y="716"/>
      <point x="60" y="608"/>
      <point x="60" y="540" type="curve" smooth="yes"/>
      <point x="60" y="304"/>
      <point x="437" y="345"/>
      <point x="437" y="151" type="curve" smooth="yes"/>
      <point x="437" y="70"/>
      <point x="371" y="26"/>
      <point x="293" y="26" type="curve" smooth="yes"/>
      <point x="187" y="26"/>
      <point x="104" y="87"/>
      <point x="97" y="205" type="curve"/>
      <point x="58" y="205" type="line"/>
      <point x="64" y="-8" type="line"/>
      <point x="116" y="-8" type="line"/>
      <point x="111" y="35" type="line"/>
      <point x="160" y="1"/>
      <point x="229" y="-16"/>
      <point x="289" y="-16" type="curve" smooth="yes"/>
      <point x="438" y="-16"/>
      <point x="523" y="63"/>
      <point x="523" y="174" type="curve" smooth="yes"/>
      <point x="523" y="411"/>
      <point x="142" y="376"/>
      <point x="142" y="559" type="curve" smooth="yes"/>
      <point x="142" y="622"/>
      <point x="187" y="676"/>
      <point x="270" y="676" type="curve" smooth="yes"/>
      <point x="387" y="676"/>
      <point x="442" y="584"/>
      <point x="448" y="488" type="curve"/>
      <point x="484" y="488" type="line"/>
      <point x="484" y="708" type="line"/>
      <point x="433" y="708" type="line"/>
      <point x="437" y="665" type="line"/>
      <point x="382" y="705"/>
      <point x="314" y="716"/>
      <point x="263" y="716" type="curve" smooth="yes"/>
    </contour>
    <contour>
      <point x="272" y="700" type="move" name="top"/>
    </contour>
    <contour>
      <point x="304" y="0" type="move" name="bottom"/>
    </contour>
  </outline>
</glyph>
<glyph name="X" format="1">
  <advance width="649"/>
  <unicode hex="0058"/>
  <outline>
    <contour>
      <point x="426" y="700" type="line"/>
      <point x="426" y="656" type="line"/>
      <point x="510" y="660" type="line"/>
      <point x="489" y="641"/>
      <point x="455" y="592"/>
      <point x="421" y="544" type="curve" smooth="yes"/>
      <point x="325" y="405" type="line"/>
      <point x="273" y="477"/>
      <point x="225" y="544"/>
      <point x="201" y="584" type="curve" smooth="yes"/>
      <point x="178" y="621"/>
      <point x="151" y="662"/>
      <point x="224" y="665" type="curve" smooth="yes"/>
      <point x="268" y="667" type="line"/>
      <point x="268" y="700" type="line"/>
      <point x="9" y="700" type="line"/>
      <point x="9" y="656" type="line"/>
      <point x="64" y="658" type="line"/>
      <point x="86" y="604"/>
      <point x="104" y="584"/>
      <point x="279" y="339" type="curve"/>
      <point x="149" y="153" type="line" smooth="yes"/>
      <point x="104" y="87"/>
      <point x="76" y="46"/>
      <point x="12" y="33" type="curve"/>
      <point x="12" y="0" type="line"/>
      <point x="208" y="0" type="line"/>
      <point x="208" y="44" type="line"/>
      <point x="125" y="39" type="line"/>
      <point x="158" y="77"/>
      <point x="183" y="117"/>
      <point x="207" y="153" type="curve" smooth="yes"/>
      <point x="240" y="203"/>
      <point x="273" y="252"/>
      <point x="306" y="300" type="curve"/>
      <point x="367" y="215"/>
      <point x="422" y="147"/>
      <point x="453" y="106" type="curve" smooth="yes"/>
      <point x="477" y="73"/>
      <point x="488" y="30"/>
      <point x="411" y="33" type="curve"/>
      <point x="411" y="0" type="line"/>
      <point x="656" y="0" type="line"/>
      <point x="656" y="44" type="line"/>
      <point x="598" y="42" type="line"/>
      <point x="529" y="135" type="line" smooth="yes"/>
      <point x="498" y="176"/>
      <point x="424" y="272"/>
      <point x="353" y="368" type="curve"/>
      <point x="466" y="528" type="line" smooth="yes"/>
      <point x="508" y="588"/>
      <point x="559" y="658"/>
      <point x="623" y="667" type="curve"/>
      <point x="623" y="700" type="line"/>
    </contour>
  </outline>
</glyph>
<glyph name="g" format="1">
  <advance width="553"/>
  <unicode hex="0067"/>
  <outline>
    <contour>
      <point x="463" y="576"/>
      <point x="415" y="535"/>
      <point x="395" y="479" type="curve"/>
      <point x="357" y="503"/>
      <point x="312" y="516"/>
      <point x="268" y="516" type="curve" smooth="yes"/>
      <point x="164" y="516"/>
      <point x="57" y="438"/>
      <point x="57" y="318" type="curve" smooth="yes"/>
      <point x="57" y="249"/>
      <point x="97" y="195"/>
      <point x="158" y="166" type="curve"/>
      <point x="99" y="156"/>
      <point x="58" y="110"/>
      <point x="58" y="63" type="curve" smooth="yes"/>
      <point x="58" y="21"/>
      <point x="84" y="-2"/>
      <point x="127" y="-16" type="curve"/>
      <point x="87" y="-33"/>
      <point x="35" y="-75"/>
      <point x="35" y="-136" type="curve" smooth="yes"/>
      <point x="35" y="-202"/>
      <point x="104" y="-271"/>
      <point x="285" y="-271" type="curve" smooth="yes"/>
      <point x="403" y="-271"/>
      <point x="530" y="-212"/>
      <point x="530" y="-104" type="curve" smooth="yes"/>
      <point x="530" y="4"/>
      <point x="438" y="39"/>
      <point x="284" y="46" type="curve" smooth="yes"/>
      <point x="192" y="50"/>
      <point x="135" y="54"/>
      <point x="125" y="86" type="curve" smooth="yes"/>
      <point x="115" y="119"/>
      <point x="152" y="147"/>
      <point x="201" y="147" type="curve" smooth="yes"/>
      <point x="227" y="147"/>
      <point x="243" y="142"/>
      <point x="268" y="142" type="curve" smooth="yes"/>
      <point x="380" y="142"/>
      <point x="479" y="222"/>
      <point x="479" y="335" type="curve" smooth="yes"/>
      <point x="479" y="381"/>
      <point x="458" y="424"/>
      <point x="426" y="454" type="curve"/>
      <point x="433" y="484"/>
      <point x="450" y="515"/>
      <point x="484" y="520" type="curve"/>
      <point x="488" y="500"/>
      <point x="503" y="485"/>
      <point x="526" y="485" type="curve" smooth="yes"/>
      <point x="558" y="484"/>
      <point x="569" y="511"/>
      <point x="569" y="526" type="curve" smooth="yes"/>
      <point x="569" y="557"/>
      <point x="550" y="576"/>
      <point x="516" y="576" type="curve" smooth="yes"/>
    </contour>
    <contour>
      <point x="203" y="-30"/>
      <point x="238" y="-32"/>
      <point x="274" y="-33" type="curve" smooth="yes"/>
      <point x="385" y="-36"/>
      <point x="466" y="-51"/>
      <point x="466" y="-125" type="curve" smooth="yes"/>
      <point x="466" y="-182"/>
      <point x="398" y="-232"/>
      <point x="284" y="-232" type="curve" smooth="yes"/>
      <point x="181" y="-232"/>
      <point x="114" y="-190"/>
      <point x="114" y="-124" type="curve" smooth="yes"/>
      <point x="114" y="-85"/>
      <point x="135" y="-49"/>
      <point x="171" y="-25" type="curve"/>
    </contour>
    <contour>
      <point x="343" y="481"/>
      <point x="382" y="403"/>
      <point x="382" y="315" type="curve" smooth="yes"/>
      <point x="382" y="237"/>
      <point x="345" y="178"/>
      <point x="271" y="178" type="curve" smooth="yes"/>
      <point x="196" y="178"/>
      <point x="153" y="244"/>
      <point x="153" y="340" type="curve" smooth="yes"/>
      <point x="153" y="420"/>
      <point x="194" y="481"/>
      <point x="266" y="481" type="curve" smooth="yes"/>
    </contour>
    <contour>
      <point x="264" y="500" type="move" name="top"/>
    </contour>
  </outline>
</glyph>
<glyph name="p" format="1">
  <advance width="597"/>
  <unicode hex="0070"/>
  <outline>
    <contour>
      <point x="279" y="516"/>
      <point x="220" y="492"/>
      <point x="180" y="456" type="curve"/>
      <point x="179" y="479"/>
      <point x="177" y="497"/>
      <point x="176" y="510" type="curve"/>
      <point x="146" y="510" type="line"/>
      <point x="132" y="496"/>
      <point x="117" y="483"/>
      <point x="29" y="483" type="curve"/>
      <point x="29" y="441" type="line"/>
      <point x="100" y="445" type="line"/>
      <point x="96" y="422"/>
      <point x="96" y="401"/>
      <point x="96" y="380" type="curve" smooth="yes"/>
      <point x="94" y="-103" type="line" smooth="yes"/>
      <point x="93" y="-175"/>
      <point x="96" y="-225"/>
      <point x="35" y="-225" type="curve"/>
      <point x="35" y="-255" type="line"/>
      <point x="239" y="-255" type="line"/>
      <point x="239" y="-214" type="line"/>
      <point x="176" y="-217" type="line"/>
      <point x="180" y="-194"/>
      <point x="180" y="-176"/>
      <point x="180" y="-149" type="curve" smooth="yes"/>
      <point x="180" y="17" type="line"/>
      <point x="214" y="-5"/>
      <point x="253" y="-16"/>
      <point x="300" y="-16" type="curve" smooth="yes"/>
      <point x="435" y="-16"/>
      <point x="555" y="97"/>
      <point x="555" y="268" type="curve" smooth="yes"/>
      <point x="555" y="422"/>
      <point x="451" y="516"/>
      <point x="335" y="516" type="curve" smooth="yes"/>
    </contour>
    <contour>
      <point x="408" y="467"/>
      <point x="452" y="360"/>
      <point x="452" y="252" type="curve" smooth="yes"/>
      <point x="452" y="120"/>
      <point x="393" y="24"/>
      <point x="298" y="24" type="curve" smooth="yes"/>
      <point x="254" y="24"/>
      <point x="214" y="38"/>
      <point x="181" y="63" type="curve"/>
      <point x="182" y="380"/>
      <point x="182" y="396"/>
      <point x="181" y="411" type="curve"/>
      <point x="209" y="441"/>
      <point x="253" y="467"/>
      <point x="299" y="467" type="curve" smooth="yes"/>
    </contour>
  </outline>
</glyph>
<glyph name="r" format="1">
  <advance width="433"/>
  <unicode hex="0072"/>
  <outline>
    <contour>
      <point x="284" y="516"/>
      <point x="218" y="460"/>
      <point x="188" y="411" type="curve"/>
      <point x="187" y="459"/>
      <point x="185" y="489"/>
      <point x="183" y="510" type="curve"/>
      <point x="154" y="510" type="line"/>
      <point x="139" y="496"/>
      <point x="124" y="483"/>
      <point x="67" y="483" type="curve" smooth="yes"/>
      <point x="36" y="483" type="line"/>
      <point x="36" y="442" type="line"/>
      <point x="107" y="445" type="line"/>
      <point x="103" y="422"/>
      <point x="103" y="401"/>
      <point x="103" y="380" type="curve" smooth="yes"/>
      <point x="103" y="152" type="line" smooth="yes"/>
      <point x="103" y="80"/>
      <point x="105" y="30"/>
      <point x="44" y="30" type="curve"/>
      <point x="44" y="0" type="line"/>
      <point x="249" y="0" type="line"/>
      <point x="249" y="41" type="line"/>
      <point x="186" y="38" type="line"/>
      <point x="190" y="61"/>
      <point x="190" y="79"/>
      <point x="190" y="106" type="curve" smooth="yes"/>
      <point x="189" y="352" type="line"/>
      <point x="224" y="417"/>
      <point x="280" y="463"/>
      <point x="331" y="461" type="curve"/>
      <point x="327" y="432"/>
      <point x="347" y="406"/>
      <point x="376" y="405" type="curve" smooth="yes"/>
      <point x="412" y="404"/>
      <point x="426" y="436"/>
      <point x="426" y="453" type="curve" smooth="yes"/>
      <point x="426" y="497"/>
      <point x="393" y="516"/>
      <point x="356" y="516" type="curve" smooth="yes"/>
    </contour>
    <contour>
      <point x="255" y="500" type="move" name="top"/>
    </contour>
    <contour>
      <point x="217" y="0" type="move" name="bottom"/>
    </contour>
  </outline>
</glyph>
<glyph name="z" format="1">
  <advance width="511"/>
  <unicode hex="007A"/>
  <outline>
    <contour>
      <point x="67" y="500" type="line"/>
      <point x="55" y="321" type="line"/>
      <point x="86" y="321" type="line"/>
      <point x="97" y="398"/>
      <point x="113" y="461"/>
      <point x="188" y="462" type="curve" smooth="yes"/>
      <point x="376" y="465" type="line"/>
      <point x="363" y="457"/>
      <point x="340" y="427"/>
      <point x="319" y="400" type="curve" smooth="yes"/>
      <point x="40" y="41" type="line"/>
      <point x="40" y="0" type="line"/>
      <point x="455" y="0" type="line"/>
      <point x="467" y="182" type="line"/>
      <point x="438" y="182" type="line"/>
      <point x="426" y="102"/>
      <point x="401" y="37"/>
      <point x="318" y="38" type="curve" smooth="yes"/>
      <point x="125" y="41" type="line"/>
      <point x="150" y="62"/>
      <point x="160" y="75"/>
      <point x="177" y="97" type="curve" smooth="yes"/>
      <point x="459" y="468" type="line"/>
      <point x="459" y="500" type="line"/>
    </contour>
    <contour>
      <point x="266" y="500" type="move" name="top"/>
    </contour>
  </outline>
</glyph>
<glyph name="paragraph" format="1">
  <advance width="501"/>
  <unicode hex="00B6"/>
  <outline>
    <contour>
      <point x="175" y="700" type="line" smooth="yes"/>
      <point x="104" y="700"/>
      <point x="33" y="650"/>
      <point x="33" y="555" type="curve" smooth="yes"/>
      <point x="33" y="452"/>
      <point x="108" y="414"/>
      <point x="174" y="409" type="curve"/>
      <point x="172" y="-255" type="line"/>
      <point x="242" y="-255" type="line"/>
      <point x="245" y="656" type="line"/>
      <point x="332" y="659" type="line"/>
      <point x="330" y="-255" type="line"/>
      <point x="400" y="-255" type="line"/>
      <point x="402" y="700" type="line"/>
    </contour>
  </outline>
</glyph>
<glyph name="germandbls" format="1">
  <advance width="681"/>
  <unicode hex="00DF"/>
  <outline>
    <contour>
      <point x="188" y="760"/>
      <point x="107" y="649"/>
      <point x="107" y="501" type="curve" smooth="yes"/>
      <point x="107" y="500" type="line"/>
      <point x="25" y="500" type="line"/>
      <point x="25" y="455" type="line"/>
      <point x="107" y="457" type="line"/>
      <point x="108" y="152" type="line" smooth="yes"/>
      <point x="108" y="80"/>
      <point x="110" y="30"/>
      <point x="49" y="30" type="curve"/>
      <point x="49" y="0" type="line"/>
      <point x="253" y="0" type="line"/>
      <point x="253" y="41" type="line"/>
      <point x="190" y="38" type="line"/>
      <point x="194" y="61"/>
      <point x="194" y="79"/>
      <point x="194" y="106" type="curve" smooth="yes"/>
      <point x="193" y="458" type="line" smooth="yes"/>
      <point x="193" y="534"/>
      <point x="198" y="594"/>
      <point x="220" y="639" type="curve" smooth="yes"/>
      <point x="244" y="687"/>
      <point x="284" y="716"/>
      <point x="344" y="717" type="curve" smooth="yes"/>
      <point x="396" y="718"/>
      <point x="496" y="709"/>
      <point x="493" y="516" type="curve"/>
      <point x="375" y="519"/>
      <point x="311" y="461"/>
      <point x="311" y="371" type="curve" smooth="yes"/>
      <point x="311" y="207"/>
      <point x="569" y="222"/>
      <point x="569" y="104" type="curve" smooth="yes"/>
      <point x="569" y="51"/>
      <point x="526" y="23"/>
      <point x="481" y="23" type="curve" smooth="yes"/>
      <point x="404" y="23"/>
      <point x="359" y="81"/>
      <point x="354" y="164" type="curve"/>
      <point x="323" y="164" type="line"/>
      <point x="329" y="-8" type="line"/>
      <point x="371" y="-8" type="line"/>
      <point x="368" y="16" type="line"/>
      <point x="403" y="-5"/>
      <point x="454" y="-16"/>
      <point x="483" y="-16" type="curve" smooth="yes"/>
      <point x="584" y="-16"/>
      <point x="653" y="31"/>
      <point x="653" y="132" type="curve" smooth="yes"/>
      <point x="653" y="285"/>
      <point x="390" y="283"/>
      <point x="390" y="403" type="curve" smooth="yes"/>
      <point x="390" y="493"/>
      <point x="516" y="482"/>
      <point x="576" y="478" type="curve"/>
      <point x="578" y="490"/>
      <point x="579" y="500"/>
      <point x="579" y="507" type="curve" smooth="yes"/>
      <point x="588" y="726"/>
      <point x="423" y="760"/>
      <point x="348" y="760" type="curve" smooth="yes"/>
    </contour>
  </outline>
</glyph>
<glyph name="candrabindudeva" format="1">
  <advance width="409"/>
  <unicode hex="0901"/>
  <note>
    dCandrabindu
  </note>
  <outline>
    <component base="ecandravowelsigndeva" yOffset="5"/>
    <component base="anusvaradeva" xOffset="73" yOffset="117"/>
    <contour>
      <point x="205" y="570" type="move" name="_top"/>
    </contour>
  </outline>
</glyph>
<glyph name="aadeva" format="1">
  <advance width="1027"/>
  <unicode hex="0906"/>
  <outline>
    <component base="adeva"/>
    <component base="uni093E" xOffset="657"/>
    <contour>
      <point x="786" y="664" type="move" name="mark0"/>
    </contour>
  </outline>
</glyph>
<glyph name="ideva" format="1">
  <advance width="599"/>
  <unicode hex="0907"/>
  <outline>
    <contour>
      <point x="15" y="570" type="line"/>
      <point x="43" y="506" type="line"/>
      <point x="378" y="506" type="line"/>
      <point x="378" y="381" type="line"/>
      <point x="457" y="381" type="line"/>
      <point x="457" y="506" type="line"/>
      <point x="584" y="506" type="line"/>
      <point x="556" y="570" type="line"/>
    </contour>
    <contour>
      <point x="193" y="95"/>
      <point x="163" y="117"/>
      <point x="131" y="117" type="curve" smooth="yes"/>
      <point x="94" y="117"/>
      <point x="62" y="86"/>
      <point x="88" y="7" type="curve" smooth="yes"/>
      <point x="107" y="-52"/>
      <point x="156" y="-134"/>
      <point x="202" y="-202" type="curve"/>
      <point x="265" y="-148" type="line"/>
      <point x="213" y="-105"/>
      <point x="181" y="-72"/>
      <point x="150" y="-21" type="curve"/>
      <point x="172" y="-6"/>
      <point x="193" y="17"/>
      <point x="193" y="52" type="curve" smooth="yes"/>
    </contour>
    <contour>
      <point x="101" y="20" type="line"/>
      <point x="165" y="-41"/>
      <point x="229" y="-55"/>
      <point x="289" y="-55" type="curve" smooth="yes"/>
      <point x="462" y="-55"/>
      <point x="497" y="63"/>
      <point x="496" y="141" type="curve" smooth="yes"/>
      <point x="495" y="228"/>
      <point x="422" y="289"/>
      <point x="370" y="289" type="curve" smooth="yes"/>
      <point x="316" y="289"/>
      <point x="276" y="260"/>
      <point x="238" y="260" type="curve" smooth="yes"/>
      <point x="215" y="260"/>
      <point x="195" y="278"/>
      <point x="195" y="306" type="curve" smooth="yes"/>
      <point x="195" y="359"/>
      <point x="217" y="381"/>
      <point x="269" y="381" type="curve" smooth="yes"/>
      <point x="457" y="381" type="line"/>
      <point x="381" y="445" type="line"/>
      <point x="240" y="445" type="line" smooth="yes"/>
      <point x="180" y="445"/>
      <point x="134" y="410"/>
      <point x="136" y="349" type="curve" smooth="yes"/>
      <point x="139" y="259"/>
      <point x="208" y="193"/>
      <point x="260" y="193" type="curve" smooth="yes"/>
      <point x="306" y="193"/>
      <point x="359" y="221"/>
      <point x="400" y="220" type="curve" smooth="yes"/>
      <point x="431" y="220"/>
      <point x="450" y="193"/>
      <point x="450" y="156" type="curve" smooth="yes"/>
      <point x="450" y="81"/>
      <point x="400" y="11"/>
      <point x="282" y="11" type="curve" smooth="yes"/>
      <point x="223" y="11"/>
      <point x="175" y="28"/>
      <point x="126" y="65" type="curve"/>
    </contour>
    <contour>
      <point x="418" y="570" type="move" name="top"/>
    </contour>
  </outline>
</glyph>
<glyph name="udeva" format="1">
  <advance width="529"/>
  <unicode hex="0909"/>
  <outline>
    <contour>
      <point x="15" y="570" type="line"/>
      <point x="43" y="506" type="line"/>
      <point x="514" y="506" type="line"/>
      <point x="486" y="570" type="line"/>
    </contour>
    <contour>
      <point x="108" y="93"/>
      <point x="187" y="8"/>
      <point x="299" y="8" type="curve" smooth="yes"/>
      <point x="398" y="8"/>
      <point x="453" y="74"/>
      <point x="453" y="146" type="curve" smooth="yes"/>
      <point x="453" y="236"/>
      <point x="364" y="339"/>
      <point x="228" y="339" type="curve"/>
      <point x="228" y="313" type="line"/>
      <point x="314" y="313"/>
      <point x="369" y="238"/>
      <point x="369" y="169" type="curve" smooth="yes"/>
      <point x="369" y="110"/>
      <point x="330" y="73"/>
      <point x="272" y="73" type="curve" smooth="yes"/>
      <point x="191" y="73"/>
      <point x="127" y="147"/>
      <point x="84" y="228" type="curve"/>
      <point x="50" y="211" type="line"/>
    </contour>
    <contour>
      <point x="301" y="546" type="line"/>
      <point x="378" y="458"/>
      <point x="385" y="373"/>
      <point x="172" y="337" type="curve"/>
      <point x="190" y="274" type="line"/>
      <point x="247" y="283" type="line" smooth="yes"/>
      <point x="418" y="309"/>
      <point x="450" y="461"/>
      <point x="329" y="560" type="curve"/>
    </contour>
    <contour>
      <point x="314" y="570" type="move" name="top"/>
    </contour>
  </outline>
</glyph>
<glyph name="kadeva" format="1">
  <advance width="778"/>
  <unicode hex="0915"/>
  <note>
    dKa
  </note>
  <outline>
    <contour>
      <point x="15" y="570" type="line"/>
      <point x="43" y="506" type="line"/>
      <point x="373" y="506" type="line"/>
      <point x="373" y="0" type="line"/>
      <point x="452" y="0" type="line"/>
      <point x="452" y="506" type="line"/>
      <point x="763" y="506" type="line"/>
      <point x="735" y="570" type="line"/>
    </contour>
    <contour>
      <point x="679" y="409"/>
      <point x="595" y="409" type="curve" smooth="yes"/>
      <point x="543" y="409"/>
      <point x="487" y="387"/>
      <point x="441" y="340" type="curve"/>
      <point x="450" y="263" type="line"/>
      <point x="499" y="310"/>
      <point x="565" y="335"/>
      <point x="617" y="335" type="curve" smooth="yes"/>
      <point x="667" y="335"/>
      <point x="704" y="312"/>
      <point x="704" y="263" type="curve" smooth="yes"/>
      <point x="704" y="222"/>
      <point x="678" y="153"/>
      <point x="584" y="142" type="curve"/>
      <point x="619" y="63" type="line"/>
      <point x="719" y="89"/>
      <point x="751" y="173"/>
      <point x="751" y="244" type="curve" smooth="yes"/>
      <point x="751" y="349"/>
    </contour>
    <contour>
      <point x="124" y="413"/>
      <point x="59" y="362"/>
      <point x="59" y="262" type="curve" smooth="yes"/>
      <point x="59" y="155"/>
      <point x="136" y="75"/>
      <point x="247" y="75" type="curve" smooth="yes"/>
      <point x="303" y="75"/>
      <point x="355" y="92"/>
      <point x="426" y="143" type="curve"/>
      <point x="426" y="226" type="line"/>
      <point x="374" y="171"/>
      <point x="290" y="142"/>
      <point x="213" y="142" type="curve" smooth="yes"/>
      <point x="160" y="142"/>
      <point x="110" y="168"/>
      <point x="110" y="234" type="curve" smooth="yes"/>
      <point x="110" y="293"/>
      <point x="145" y="338"/>
      <point x="223" y="338" type="curve" smooth="yes"/>
      <point x="271" y="338"/>
      <point x="339" y="320"/>
      <point x="414" y="269" type="curve"/>
      <point x="416" y="327" type="line"/>
      <point x="329" y="395"/>
      <point x="287" y="413"/>
      <point x="220" y="413" type="curve" smooth="yes"/>
    </contour>
    <contour>
      <point x="104" y="0" type="move" name="nukta"/>
    </contour>
    <contour>
      <point x="407" y="0" type="move" name="bottom"/>
    </contour>
    <contour>
      <point x="413" y="570" type="move" name="top"/>
    </contour>
  </outline>
</glyph>
<glyph name="khadeva" format="1">
  <advance width="817"/>
  <unicode hex="0916"/>
  <note>
    dKha
  </note>
  <outline>
    <contour>
      <point x="163" y="513" type="line"/>
      <point x="202" y="420"/>
      <point x="211" y="360"/>
      <point x="190" y="295" type="curve"/>
      <point x="176" y="314"/>
      <point x="148" y="328"/>
      <point x="121" y="328" type="curve" smooth="yes"/>
      <point x="85" y="328"/>
      <point x="55" y="309"/>
      <point x="55" y="259" type="curve" smooth="yes"/>
      <point x="55" y="154"/>
      <point x="163" y="5"/>
      <point x="374" y="5" type="curve" smooth="yes"/>
      <point x="454" y="5"/>
      <point x="539" y="28"/>
      <point x="626" y="79" type="curve"/>
      <point x="610" y="154" type="line"/>
      <point x="526" y="104"/>
      <point x="438" y="75"/>
      <point x="350" y="75" type="curve" smooth="yes"/>
      <point x="259" y="75"/>
      <point x="171" y="97"/>
      <point x="126" y="181" type="curve"/>
      <point x="210" y="185"/>
      <point x="257" y="268"/>
      <point x="257" y="361" type="curve" smooth="yes"/>
      <point x="257" y="405"/>
      <point x="246" y="456"/>
      <point x="222" y="513" type="curve"/>
    </contour>
    <contour>
      <point x="382" y="458"/>
      <point x="318" y="409"/>
      <point x="318" y="332" type="curve" smooth="yes"/>
      <point x="318" y="245"/>
      <point x="400" y="161"/>
      <point x="500" y="161" type="curve" smooth="yes"/>
      <point x="538" y="161"/>
      <point x="573" y="178"/>
      <point x="599" y="202" type="curve"/>
      <point x="599" y="305" type="line"/>
      <point x="561" y="247"/>
      <point x="502" y="221"/>
      <point x="452" y="221" type="curve" smooth="yes"/>
      <point x="392" y="221"/>
      <point x="385" y="258"/>
      <point x="385" y="288" type="curve" smooth="yes"/>
      <point x="385" y="347"/>
      <point x="413" y="388"/>
      <point x="473" y="388" type="curve" smooth="yes"/>
      <point x="510" y="388"/>
      <point x="561" y="373"/>
      <point x="600" y="347" type="curve"/>
      <point x="600" y="387" type="line"/>
      <point x="570" y="424"/>
      <point x="513" y="458"/>
      <point x="453" y="458" type="curve" smooth="yes"/>
    </contour>
    <contour>
      <point x="15" y="570" type="line"/>
      <point x="43" y="506" type="line"/>
      <point x="593" y="506" type="line"/>
      <point x="593" y="0" type="line"/>
      <point x="672" y="0" type="line"/>
      <point x="672" y="506" type="line"/>
      <point x="802" y="506" type="line"/>
      <point x="774" y="570" type="line"/>
    </contour>
    <contour>
      <point x="82" y="0" type="move" name="nukta"/>
    </contour>
    <contour>
      <point x="630" y="0" type="move" name="bottom"/>
    </contour>
    <contour>
      <point x="630" y="570" type="move" name="top"/>
    </contour>
  </outline>
</glyph>
<glyph name="gadeva" format="1">
  <advance width="614"/>
  <unicode hex="0917"/>
  <note>
    dGa
  </note>
  <outline>
    <contour>
      <point x="15" y="570" type="line"/>
      <point x="43" y="506" type="line"/>
      <point x="393" y="506" type="line"/>
      <point x="393" y="0" type="line"/>
      <point x="472" y="0" type="line"/>
      <point x="472" y="506" type="line"/>
      <point x="599" y="506" type="line"/>
      <point x="571" y="570" type="line"/>
    </contour>
    <contour>
      <point x="152" y="514" type="line"/>
      <point x="162" y="438"/>
      <point x="173" y="361"/>
      <point x="173" y="285" type="curve"/>
      <point x="107" y="295"/>
      <point x="78" y="280"/>
      <point x="78" y="247" type="curve" smooth="yes"/>
      <point x="78" y="198"/>
      <point x="128" y="155"/>
      <point x="174" y="155" type="curve" smooth="yes"/>
      <point x="245" y="155"/>
      <point x="251" y="285"/>
      <point x="228" y="514" type="curve"/>
    </contour>
    <contour>
      <point x="174" y="0" type="move" name="nukta"/>
    </contour>
    <contour>
      <point x="431" y="0" type="move" name="bottom"/>
    </contour>
    <contour>
      <point x="431" y="570" type="move" name="top"/>
    </contour>
  </outline>
</glyph>
<glyph name="ngadeva" format="1">
  <advance width="684"/>
  <unicode hex="0919"/>
  <note>
    dNga
  </note>
  <outline>
    <contour>
      <point x="597" y="406"/>
      <point x="571" y="405"/>
      <point x="546" y="380" type="curve" smooth="yes"/>
      <point x="520" y="354"/>
      <point x="520" y="329"/>
      <point x="549" y="300" type="curve" smooth="yes"/>
      <point x="578" y="271"/>
      <point x="603" y="271"/>
      <point x="629" y="297" type="curve" smooth="yes"/>
      <point x="654" y="322"/>
      <point x="657" y="346"/>
      <point x="626" y="377" type="curve" smooth="yes"/>
    </contour>
    <contour>
      <point x="77" y="193" type="line"/>
      <point x="131" y="80"/>
      <point x="212" y="-15"/>
      <point x="345" y="-15" type="curve" smooth="yes"/>
      <point x="465" y="-15"/>
      <point x="500" y="63"/>
      <point x="499" y="141" type="curve" smooth="yes"/>
      <point x="498" y="228"/>
      <point x="425" y="289"/>
      <point x="373" y="289" type="curve" smooth="yes"/>
      <point x="319" y="289"/>
      <point x="279" y="260"/>
      <point x="241" y="260" type="curve" smooth="yes"/>
      <point x="218" y="260"/>
      <point x="198" y="278"/>
      <point x="198" y="306" type="curve" smooth="yes"/>
      <point x="198" y="359"/>
      <point x="220" y="381"/>
      <point x="272" y="381" type="curve" smooth="yes"/>
      <point x="460" y="381" type="line"/>
      <point x="384" y="445" type="line"/>
      <point x="243" y="445" type="line" smooth="yes"/>
      <point x="183" y="445"/>
      <point x="137" y="410"/>
      <point x="139" y="349" type="curve" smooth="yes"/>
      <point x="142" y="259"/>
      <point x="211" y="193"/>
      <point x="263" y="193" type="curve" smooth="yes"/>
      <point x="309" y="193"/>
      <point x="362" y="221"/>
      <point x="403" y="220" type="curve" smooth="yes"/>
      <point x="434" y="220"/>
      <point x="453" y="193"/>
      <point x="453" y="156" type="curve" smooth="yes"/>
      <point x="453" y="111"/>
      <point x="413" y="61"/>
      <point x="318" y="61" type="curve" smooth="yes"/>
      <point x="246" y="61"/>
      <point x="178" y="90"/>
      <point x="109" y="215" type="curve"/>
    </contour>
    <contour>
      <point x="641" y="570" type="line"/>
      <point x="15" y="570" type="line"/>
      <point x="43" y="506" type="line"/>
      <point x="381" y="506" type="line"/>
      <point x="381" y="405" type="line"/>
      <point x="460" y="381" type="line"/>
      <point x="460" y="506" type="line"/>
      <point x="669" y="506" type="line"/>
    </contour>
    <contour>
      <point x="32" y="24" type="move" name="nukta"/>
    </contour>
    <contour>
      <point x="342" y="1" type="move" name="bottom"/>
    </contour>
    <contour>
      <point x="427" y="570" type="move" name="top"/>
    </contour>
  </outline>
</glyph>
<glyph name="chadeva" format="1">
  <advance width="734"/>
  <unicode hex="091B"/>
  <note>
    dCha
  </note>
  <outline>
    <contour>
      <point x="15" y="570" type="line"/>
      <point x="43" y="506" type="line"/>
      <point x="513" y="506" type="line"/>
      <point x="513" y="380" type="line"/>
      <point x="592" y="380" type="line"/>
      <point x="592" y="506" type="line"/>
      <point x="719" y="506" type="line"/>
      <point x="691" y="570" type="line"/>
    </contour>
    <contour>
      <point x="457" y="414"/>
      <point x="408" y="379"/>
      <point x="408" y="314" type="curve" smooth="yes"/>
      <point x="408" y="218"/>
      <point x="509" y="161"/>
      <point x="605" y="134" type="curve"/>
      <point x="620" y="164" type="line"/>
      <point x="528" y="207"/>
      <point x="491" y="256"/>
      <point x="491" y="311" type="curve" smooth="yes"/>
      <point x="491" y="351"/>
      <point x="510" y="369"/>
      <point x="537" y="369" type="curve" smooth="yes"/>
      <point x="575" y="369"/>
      <point x="609" y="333"/>
      <point x="609" y="260" type="curve" smooth="yes"/>
      <point x="609" y="122"/>
      <point x="452" y="36"/>
      <point x="333" y="36" type="curve" smooth="yes"/>
      <point x="260" y="36"/>
      <point x="206" y="65"/>
      <point x="206" y="145" type="curve" smooth="yes"/>
      <point x="206" y="215"/>
      <point x="262" y="246"/>
      <point x="357" y="225" type="curve"/>
      <point x="348" y="283" type="line"/>
      <point x="242" y="314"/>
      <point x="140" y="278"/>
      <point x="140" y="165" type="curve" smooth="yes"/>
      <point x="140" y="76"/>
      <point x="230" y="-26"/>
      <point x="363" y="-26" type="curve" smooth="yes"/>
      <point x="518" y="-26"/>
      <point x="678" y="86"/>
      <point x="678" y="244" type="curve" smooth="yes"/>
      <point x="678" y="349"/>
      <point x="607" y="414"/>
      <point x="520" y="414" type="curve" smooth="yes"/>
    </contour>
    <contour>
      <point x="141" y="426"/>
      <point x="87" y="389"/>
      <point x="87" y="322" type="curve" smooth="yes"/>
      <point x="87" y="271"/>
      <point x="119" y="226"/>
      <point x="203" y="192" type="curve"/>
      <point x="220" y="219" type="line"/>
      <point x="183" y="237"/>
      <point x="153" y="269"/>
      <point x="153" y="310" type="curve" smooth="yes"/>
      <point x="153" y="354"/>
      <point x="189" y="370"/>
      <point x="239" y="368" type="curve" smooth="yes"/>
      <point x="263" y="368"/>
      <point x="287" y="362"/>
      <point x="315" y="353" type="curve"/>
      <point x="296" y="415" type="line"/>
      <point x="269" y="423"/>
      <point x="245" y="426"/>
      <point x="220" y="426" type="curve" smooth="yes"/>
    </contour>
    <contour>
      <point x="88" y="-20" type="move" name="nukta"/>
    </contour>
    <contour>
      <point x="366" y="-12" type="move" name="bottom"/>
    </contour>
    <contour>
      <point x="555" y="570" type="move" name="top"/>
    </contour>
  </outline>
</glyph>
<glyph name="tthadeva" format="1">
  <advance width="619"/>
  <unicode hex="0920"/>
  <note>
    dTtha
  </note>
  <outline>
    <contour>
      <point x="460" y="506" type="line"/>
      <point x="604" y="506" type="line"/>
      <point x="576" y="570" type="line"/>
      <point x="15" y="570" type="line"/>
      <point x="43" y="506" type="line"/>
      <point x="381" y="506" type="line"/>
      <point x="381" y="395" type="line"/>
      <point x="299" y="395" type="line" smooth="yes"/>
      <point x="170" y="395"/>
      <point x="101" y="311"/>
      <point x="101" y="220" type="curve" smooth="yes"/>
      <point x="101" y="112"/>
      <point x="193" y="-6"/>
      <point x="337" y="-6" type="curve" smooth="yes"/>
      <point x="435" y="-6"/>
      <point x="554" y="53"/>
      <point x="554" y="180" type="curve" smooth="yes"/>
      <point x="554" y="270"/>
      <point x="523" y="325"/>
      <point x="428" y="379" type="curve"/>
      <point x="460" y="314" type="line"/>
    </contour>
    <contour>
      <point x="226" y="56"/>
      <point x="173" y="101"/>
      <point x="173" y="187" type="curve" smooth="yes"/>
      <point x="173" y="254"/>
      <point x="218" y="322"/>
      <point x="307" y="322" type="curve" smooth="yes"/>
      <point x="440" y="322" type="line"/>
      <point x="362" y="346" type="line"/>
      <point x="434" y="318"/>
      <point x="481" y="286"/>
      <point x="481" y="216" type="curve" smooth="yes"/>
      <point x="481" y="119"/>
      <point x="403" y="56"/>
      <point x="302" y="56" type="curve" smooth="yes"/>
    </contour>
    <contour>
      <point x="42" y="29" type="move" name="nukta"/>
    </contour>
    <contour>
      <point x="338" y="8" type="move" name="bottom"/>
    </contour>
    <contour>
      <point x="422" y="570" type="move" name="top"/>
    </contour>
  </outline>
</glyph>
<glyph name="ddhadeva" format="1">
  <advance width="619"/>
  <unicode hex="0922"/>
  <note>
    dDdha
  </note>
  <outline>
    <contour>
      <point x="300" y="69"/>
      <point x="263" y="111"/>
      <point x="263" y="170" type="curve" smooth="yes"/>
      <point x="263" y="218"/>
      <point x="297" y="266"/>
      <point x="368" y="267" type="curve" smooth="yes"/>
      <point x="459" y="268"/>
      <point x="524" y="189"/>
      <point x="524" y="115" type="curve" smooth="yes"/>
      <point x="524" y="45"/>
      <point x="444" y="-6"/>
      <point x="354" y="-7" type="curve" smooth="yes"/>
      <point x="188" y="-9"/>
      <point x="101" y="113"/>
      <point x="101" y="231" type="curve" smooth="yes"/>
      <point x="101" y="336"/>
      <point x="177" y="405"/>
      <point x="296" y="405" type="curve" smooth="yes"/>
      <point x="381" y="405" type="line"/>
      <point x="381" y="506" type="line"/>
      <point x="43" y="506" type="line"/>
      <point x="15" y="570" type="line"/>
      <point x="576" y="570" type="line"/>
      <point x="604" y="506" type="line"/>
      <point x="460" y="506" type="line"/>
      <point x="460" y="332" type="line"/>
      <point x="315" y="332" type="line" smooth="yes"/>
      <point x="218" y="332"/>
      <point x="173" y="269"/>
      <point x="173" y="182" type="curve" smooth="yes"/>
      <point x="173" y="95"/>
      <point x="233" y="54"/>
      <point x="313" y="54" type="curve" smooth="yes"/>
      <point x="401" y="54"/>
      <point x="471" y="91"/>
      <point x="471" y="148" type="curve" smooth="yes"/>
      <point x="471" y="184"/>
      <point x="437" y="213"/>
      <point x="393" y="214" type="curve" smooth="yes"/>
      <point x="354" y="215"/>
      <point x="328" y="183"/>
      <point x="328" y="147" type="curve" smooth="yes"/>
      <point x="328" y="100"/>
      <point x="359" y="71"/>
      <point x="409" y="38" type="curve"/>
      <point x="372" y="27" type="line"/>
    </contour>
    <contour>
      <point x="369" y="-97" type="move" name="nukta"/>
    </contour>
    <contour>
      <point x="363" y="3" type="move" name="bottom"/>
    </contour>
    <contour>
      <point x="423" y="570" type="move" name="top"/>
    </contour>
  </outline>
</glyph>
<glyph name="nnadeva" format="1">
  <advance width="712"/>
  <unicode hex="0923"/>
  <note>
    dNna
  </note>
  <outline>
    <contour>
      <point x="334" y="526" type="line"/>
      <point x="334" y="272" type="line" smooth="yes"/>
      <point x="334" y="188"/>
      <point x="289" y="170"/>
      <point x="242" y="169" type="curve" smooth="yes"/>
      <point x="201" y="168"/>
      <point x="173" y="194"/>
      <point x="173" y="263" type="curve" smooth="yes"/>
      <point x="173" y="526" type="line"/>
      <point x="94" y="526" type="line"/>
      <point x="94" y="355" type="line" smooth="yes"/>
      <point x="94" y="209"/>
      <point x="175" y="106"/>
      <point x="285" y="106" type="curve" smooth="yes"/>
      <point x="358" y="106"/>
      <point x="413" y="149"/>
      <point x="413" y="242" type="curve" smooth="yes"/>
      <point x="413" y="526" type="line"/>
    </contour>
    <contour>
      <point x="573" y="506" type="line"/>
      <point x="697" y="506" type="line"/>
      <point x="669" y="570" type="line"/>
      <point x="15" y="570" type="line"/>
      <point x="43" y="506" type="line"/>
      <point x="494" y="506" type="line"/>
      <point x="494" y="0" type="line"/>
      <point x="573" y="0" type="line"/>
    </contour>
    <contour>
      <point x="242" y="0" type="move" name="nukta"/>
    </contour>
    <contour>
      <point x="535" y="0" type="move" name="bottom"/>
    </contour>
    <contour>
      <point x="535" y="570" type="move" name="top"/>
    </contour>
  </outline>
</glyph>
<glyph name="dhadeva" format="1">
  <advance width="633"/>
  <unicode hex="0927"/>
  <note>
    dDha
  </note>
  <outline>
    <contour>
      <point x="435" y="0" type="line"/>
      <point x="514" y="0" type="line"/>
      <point x="514" y="506" type="line"/>
      <point x="618" y="506" type="line"/>
      <point x="590" y="570" type="line"/>
      <point x="311" y="570" type="line"/>
      <point x="339" y="506" type="line"/>
      <point x="435" y="506" type="line"/>
    </contour>
    <contour>
      <point x="137" y="352"/>
      <point x="109" y="404"/>
      <point x="109" y="455" type="curve" smooth="yes"/>
      <point x="109" y="516"/>
      <point x="148" y="551"/>
      <point x="185" y="551" type="curve" smooth="yes"/>
      <point x="214" y="551"/>
      <point x="230" y="531"/>
      <point x="230" y="507" type="curve" smooth="yes"/>
      <point x="230" y="492"/>
      <point x="224" y="476"/>
      <point x="211" y="463" type="curve"/>
      <point x="260" y="413" type="line"/>
      <point x="280" y="428"/>
      <point x="290" y="451"/>
      <point x="290" y="476" type="curve" smooth="yes"/>
      <point x="290" y="534"/>
      <point x="242" y="597"/>
      <point x="159" y="597" type="curve" smooth="yes"/>
      <point x="80" y="597"/>
      <point x="40" y="541"/>
      <point x="40" y="478" type="curve" smooth="yes"/>
      <point x="40" y="412"/>
      <point x="84" y="332"/>
      <point x="169" y="301" type="curve"/>
      <point x="189" y="321" type="line"/>
    </contour>
    <contour>
      <point x="170" y="375"/>
      <point x="106" y="311"/>
      <point x="106" y="229" type="curve" smooth="yes"/>
      <point x="106" y="141"/>
      <point x="178" y="52"/>
      <point x="305" y="52" type="curve" smooth="yes"/>
      <point x="386" y="52"/>
      <point x="422" y="87"/>
      <point x="491" y="157" type="curve"/>
      <point x="435" y="247" type="line"/>
      <point x="392" y="164"/>
      <point x="326" y="115"/>
      <point x="253" y="115" type="curve" smooth="yes"/>
      <point x="198" y="115"/>
      <point x="164" y="144"/>
      <point x="164" y="202" type="curve" smooth="yes"/>
      <point x="164" y="258"/>
      <point x="197" y="307"/>
      <point x="297" y="307" type="curve"/>
      <point x="274" y="367" type="line"/>
    </contour>
    <contour>
      <point x="118" y="0" type="move" name="nukta"/>
    </contour>
    <contour>
      <point x="474" y="0" type="move" name="bottom"/>
    </contour>
    <contour>
      <point x="474" y="570" type="move" name="top"/>
    </contour>
  </outline>
</glyph>
<glyph name="uni092B" format="1">
  <advance width="860"/>
  <unicode hex="092B"/>
  <note>
    dPha
  </note>
  <outline>
    <contour>
      <point x="438" y="345" type="line"/>
      <point x="401" y="246"/>
      <point x="334" y="199"/>
      <point x="264" y="199" type="curve" smooth="yes"/>
      <point x="226" y="199"/>
      <point x="199" y="228"/>
      <point x="199" y="275" type="curve" smooth="yes"/>
      <point x="199" y="526" type="line"/>
      <point x="120" y="526" type="line"/>
      <point x="120" y="385" type="line" smooth="yes"/>
      <point x="120" y="239"/>
      <point x="181" y="147"/>
      <point x="300" y="147" type="curve" smooth="yes"/>
      <point x="366" y="147"/>
      <point x="431" y="179"/>
      <point x="471" y="236" type="curve"/>
    </contour>
    <contour>
      <point x="15" y="570" type="line"/>
      <point x="43" y="506" type="line"/>
      <point x="411" y="506" type="line"/>
      <point x="411" y="0" type="line"/>
      <point x="490" y="0" type="line"/>
      <point x="490" y="506" type="line"/>
      <point x="845" y="506" type="line"/>
      <point x="817" y="570" type="line"/>
    </contour>
    <contour>
      <point x="606" y="410"/>
      <point x="548" y="381"/>
      <point x="478" y="310" type="curve"/>
      <point x="487" y="233" type="line"/>
      <point x="550" y="295"/>
      <point x="627" y="338"/>
      <point x="680" y="338" type="curve" smooth="yes"/>
      <point x="723" y="338"/>
      <point x="741" y="316"/>
      <point x="741" y="279" type="curve" smooth="yes"/>
      <point x="741" y="221"/>
      <point x="698" y="133"/>
      <point x="607" y="98" type="curve"/>
      <point x="655" y="26" type="line"/>
      <point x="749" y="77"/>
      <point x="788" y="159"/>
      <point x="788" y="242" type="curve" smooth="yes"/>
      <point x="788" y="330"/>
      <point x="742" y="410"/>
      <point x="658" y="410" type="curve" smooth="yes"/>
    </contour>
    <contour>
      <point x="158" y="104" type="move" name="nukta"/>
    </contour>
    <contour>
      <point x="454" y="0" type="move" name="bottom"/>
    </contour>
    <contour>
      <point x="454" y="570" type="move" name="top"/>
    </contour>
  </outline>
</glyph>
<glyph name="madeva" format="1">
  <advance width="617"/>
  <unicode hex="092E"/>
  <note>
    dMa
  </note>
  <outline>
    <contour>
      <point x="574" y="570" type="line"/>
      <point x="15" y="570" type="line"/>
      <point x="43" y="506" type="line"/>
      <point x="129" y="506" type="line"/>
      <point x="129" y="200" type="line"/>
      <point x="419" y="200" type="line"/>
      <point x="419" y="0" type="line"/>
      <point x="498" y="0" type="line"/>
      <point x="498" y="506" type="line"/>
      <point x="602" y="506" type="line"/>
    </contour>
    <contour>
      <point x="208" y="264" type="line"/>
      <point x="208" y="506" type="line"/>
      <point x="419" y="506" type="line"/>
      <point x="419" y="264" type="line"/>
    </contour>
    <component base="deva_knot" xOffset="15" yOffset="-59"/>
    <contour>
      <point x="135" y="0" type="move" name="nukta"/>
    </contour>
    <contour>
      <point x="460" y="0" type="move" name="bottom"/>
    </contour>
    <contour>
      <point x="460" y="570" type="move" name="top"/>
    </contour>
  </outline>
</glyph>
<glyph name="uni092F" format="1">
  <advance width="617"/>
  <unicode hex="092F"/>
  <note>
    dYa
  </note>
  <outline>
    <contour>
      <point x="170" y="522" type="line"/>
      <point x="283" y="412"/>
      <point x="197" y="331"/>
      <point x="48" y="285" type="curve"/>
      <point x="102" y="166"/>
      <point x="199" y="97"/>
      <point x="304" y="97" type="curve" smooth="yes"/>
      <point x="348" y="97"/>
      <point x="394" y="108"/>
      <point x="439" y="129" type="curve"/>
      <point x="439" y="242" type="line"/>
      <point x="390" y="199"/>
      <point x="330" y="180"/>
      <point x="274" y="180" type="curve" smooth="yes"/>
      <point x="216" y="180"/>
      <point x="169" y="206"/>
      <point x="153" y="244" type="curve"/>
      <point x="281" y="287"/>
      <point x="346" y="409"/>
      <point x="223" y="522" type="curve"/>
    </contour>
    <contour>
      <point x="15" y="570" type="line"/>
      <point x="43" y="506" type="line"/>
      <point x="419" y="506" type="line"/>
      <point x="419" y="0" type="line"/>
      <point x="498" y="0" type="line"/>
      <point x="498" y="506" type="line"/>
      <point x="602" y="506" type="line"/>
      <point x="574" y="570" type="line"/>
    </contour>
    <contour>
      <point x="95" y="34" type="move" name="nukta"/>
    </contour>
    <contour>
      <point x="460" y="0" type="move" name="bottom"/>
    </contour>
    <contour>
      <point x="460" y="570" type="move" name="top"/>
    </contour>
  </outline>
</glyph>
<glyph name="vadeva" format="1">
  <advance width="645"/>
  <unicode hex="0935"/>
  <note>
    dVa
  </note>
  <outline>
    <contour>
      <point x="15" y="570" type="line"/>
      <point x="43" y="506" type="line"/>
      <point x="420" y="506" type="line"/>
      <point x="420" y="0" type="line"/>
      <point x="499" y="0" type="line"/>
      <point x="499" y="506" type="line"/>
      <point x="630" y="506" type="line"/>
      <point x="602" y="570" type="line"/>
    </contour>
    <contour>
      <point x="124" y="413"/>
      <point x="59" y="362"/>
      <point x="59" y="262" type="curve" smooth="yes"/>
      <point x="59" y="155"/>
      <point x="136" y="75"/>
      <point x="247" y="75" type="curve" smooth="yes"/>
      <point x="303" y="75"/>
      <point x="355" y="92"/>
      <point x="426" y="143" type="curve"/>
      <point x="426" y="226" type="line"/>
      <point x="374" y="171"/>
      <point x="290" y="142"/>
      <point x="213" y="142" type="curve" smooth="yes"/>
      <point x="160" y="142"/>
      <point x="110" y="168"/>
      <point x="110" y="234" type="curve" smooth="yes"/>
      <point x="110" y="293"/>
      <point x="145" y="338"/>
      <point x="223" y="338" type="curve" smooth="yes"/>
      <point x="275" y="338"/>
      <point x="351" y="317"/>
      <point x="434" y="259" type="curve"/>
      <point x="436" y="317" type="line"/>
      <point x="341" y="393"/>
      <point x="293" y="413"/>
      <point x="220" y="413" type="curve" smooth="yes"/>
    </contour>
    <contour>
      <point x="115" y="0" type="move" name="nukta"/>
    </contour>
    <contour>
      <point x="461" y="0" type="move" name="bottom"/>
    </contour>
    <contour>
      <point x="461" y="570" type="move" name="top"/>
    </contour>
  </outline>
</glyph>
<glyph name="shadeva" format="1">
  <advance width="768"/>
  <unicode hex="0936"/>
  <note>
    dSha
  </note>
  <outline>
    <contour>
      <point x="207" y="60"/>
      <point x="269" y="-9"/>
      <point x="351" y="-70" type="curve"/>
      <point x="420" y="-2" type="line"/>
      <point x="335" y="40"/>
      <point x="249" y="78"/>
      <point x="194" y="194" type="curve"/>
      <point x="145" y="185" type="line"/>
    </contour>
    <contour>
      <point x="344" y="288" type="line"/>
      <point x="272" y="329"/>
      <point x="246" y="374"/>
      <point x="246" y="432" type="curve" smooth="yes"/>
      <point x="246" y="478"/>
      <point x="258" y="506"/>
      <point x="292" y="506" type="curve" smooth="yes"/>
      <point x="331" y="506"/>
      <point x="356" y="465"/>
      <point x="356" y="404" type="curve" smooth="yes"/>
      <point x="356" y="269"/>
      <point x="260" y="183"/>
      <point x="202" y="215" type="curve"/>
      <point x="220" y="233"/>
      <point x="216" y="309"/>
      <point x="146" y="309" type="curve" smooth="yes"/>
      <point x="116" y="309"/>
      <point x="95" y="285"/>
      <point x="95" y="249" type="curve" smooth="yes"/>
      <point x="95" y="200"/>
      <point x="149" y="154"/>
      <point x="206" y="154" type="curve" smooth="yes"/>
      <point x="297" y="154"/>
      <point x="436" y="244"/>
      <point x="436" y="390" type="curve" smooth="yes"/>
      <point x="436" y="502"/>
      <point x="357" y="543"/>
      <point x="280" y="543" type="curve" smooth="yes"/>
      <point x="203" y="543"/>
      <point x="164" y="502"/>
      <point x="164" y="438" type="curve" smooth="yes"/>
      <point x="164" y="345"/>
      <point x="244" y="292"/>
      <point x="324" y="250" type="curve"/>
    </contour>
    <contour>
      <point x="15" y="570" type="line"/>
      <point x="43" y="506" type="line"/>
      <point x="548" y="506" type="line"/>
      <point x="548" y="0" type="line"/>
      <point x="627" y="0" type="line"/>
      <point x="627" y="506" type="line"/>
      <point x="753" y="506" type="line"/>
      <point x="725" y="570" type="line"/>
    </contour>
    <contour>
      <point x="158" y="-34" type="move" name="nukta"/>
    </contour>
    <contour>
      <point x="590" y="0" type="move" name="bottom"/>
    </contour>
    <contour>
      <point x="590" y="570" type="move" name="top"/>
    </contour>
  </outline>
</glyph>
<glyph name="ssadeva" format="1">
  <advance width="611"/>
  <unicode hex="0937"/>
  <note>
    dSsa
  </note>
  <outline>
    <contour>
      <point x="175" y="511" type="line"/>
      <point x="429" y="170" type="line"/>
      <point x="462" y="197" type="line" smooth="yes"/>
      <point x="210" y="541" type="line"/>
    </contour>
    <component base="padeva"/>
    <contour>
      <point x="105" y="68" type="move" name="nukta"/>
    </contour>
    <contour>
      <point x="454" y="0" type="move" name="bottom"/>
    </contour>
    <contour>
      <point x="454" y="570" type="move" name="top"/>
    </contour>
  </outline>
</glyph>
<glyph name="uni093E" format="1">
  <advance width="370"/>
  <unicode hex="093E"/>
  <outline>
    <contour>
      <point x="15" y="570" type="line"/>
      <point x="43" y="506" type="line"/>
      <point x="145" y="506" type="line"/>
      <point x="145" y="0" type="line"/>
      <point x="224" y="0" type="line"/>
      <point x="224" y="506" type="line"/>
      <point x="355" y="506" type="line"/>
      <point x="327" y="570" type="line"/>
    </contour>
    <contour>
      <point x="185" y="569" type="move" name="top"/>
    </contour>
    <contour>
      <point x="185" y="0" type="move" name="bottom"/>
    </contour>
  </outline>
</glyph>
<glyph name="rrvocalicvowelsigndeva" format="1">
  <advance width="250"/>
  <unicode hex="0944"/>
  <note>
    dMatraVocalicRr
  </note>
  <outline>
    <contour>
      <point x="176" y="13" type="line"/>
      <point x="2" y="26"/>
      <point x="-19" y="-118"/>
      <point x="46" y="-196" type="curve" smooth="yes"/>
      <point x="95" y="-255"/>
      <point x="181" y="-271"/>
      <point x="273" y="-210" type="curve"/>
      <point x="238" y="-148" type="line"/>
      <point x="169" y="-188"/>
      <point x="104" y="-210"/>
      <point x="74" y="-166" type="curve" smooth="yes"/>
      <point x="44" y="-122"/>
      <point x="80" y="-40"/>
      <point x="196" y="-55" type="curve"/>
    </contour>
    <contour>
      <point x="107" y="-203" type="line"/>
      <point x="59" y="-247"/>
      <point x="66" y="-325"/>
      <point x="114" y="-382" type="curve" smooth="yes"/>
      <point x="164" y="-440"/>
      <point x="243" y="-452"/>
      <point x="335" y="-391" type="curve"/>
      <point x="300" y="-329" type="line"/>
      <point x="231" y="-369"/>
      <point x="166" y="-391"/>
      <point x="139" y="-352" type="curve" smooth="yes"/>
      <point x="118" y="-320"/>
      <point x="132" y="-269"/>
      <point x="215" y="-240" type="curve"/>
    </contour>
    <contour>
      <point x="125" y="0" type="move" name="_bottom"/>
    </contour>
  </outline>
</glyph>
<glyph name="eshortvowelsigndeva" format="1">
  <advance width="479"/>
  <unicode hex="0946"/>
  <outline>
    <contour>
      <point x="429" y="555" type="line"/>
      <point x="429" y="763"/>
      <point x="304" y="757"/>
      <point x="213" y="748" type="curve" smooth="yes"/>
      <point x="153" y="742"/>
      <point x="118" y="747"/>
      <point x="76" y="826" type="curve"/>
      <point x="50" y="813" type="line"/>
      <point x="89" y="707"/>
      <point x="135" y="673"/>
      <point x="217" y="679" type="curve" smooth="yes"/>
      <point x="319" y="686"/>
      <point x="372" y="663"/>
      <point x="390" y="555" type="curve"/>
    </contour>
    <contour>
      <point x="408" y="556" type="move" name="_top"/>
    </contour>
  </outline>
</glyph>
<glyph name="onedeva" format="1">
  <advance width="413"/>
  <unicode hex="0967"/>
  <note>
    dOne
  </note>
  <outline>
    <contour>
      <point x="251" y="375" type="line"/>
      <point x="179" y="415"/>
      <point x="139" y="457"/>
      <point x="139" y="518" type="curve" smooth="yes"/>
      <point x="139" y="558"/>
      <point x="161" y="584"/>
      <point x="195" y="584" type="curve" smooth="yes"/>
      <point x="234" y="584"/>
      <point x="269" y="535"/>
      <point x="269" y="481" type="curve" smooth="yes"/>
      <point x="269" y="376"/>
      <point x="181" y="305"/>
      <point x="71" y="226" type="curve"/>
      <point x="226" y="129" type="line" smooth="yes"/>
      <point x="260" y="108"/>
      <point x="238" y="65"/>
      <point x="177" y="0" type="curve"/>
      <point x="242" y="-44" type="line"/>
      <point x="329" y="30"/>
      <point x="338" y="108"/>
      <point x="274" y="147" type="curve" smooth="yes"/>
      <point x="167" y="213" type="line"/>
      <point x="287" y="301"/>
      <point x="347" y="377"/>
      <point x="347" y="470" type="curve" smooth="yes"/>
      <point x="347" y="582"/>
      <point x="268" y="623"/>
      <point x="191" y="623" type="curve" smooth="yes"/>
      <point x="102" y="623"/>
      <point x="52" y="582"/>
      <point x="52" y="515" type="curve" smooth="yes"/>
      <point x="52" y="431"/>
      <point x="134" y="380"/>
      <point x="218" y="339" type="curve"/>
    </contour>
  </outline>
</glyph>
<glyph name="twodeva" format="1">
  <advance width="434"/>
  <unicode hex="0968"/>
  <note>
    dTwo
  </note>
  <outline>
    <contour>
      <point x="410" y="586"/>
      <point x="317" y="652"/>
      <point x="212" y="652" type="curve" smooth="yes"/>
      <point x="162" y="652"/>
      <point x="109" y="637"/>
      <point x="62" y="605" type="curve"/>
      <point x="109" y="532" type="line"/>
      <point x="171" y="571"/>
      <point x="224" y="587"/>
      <point x="264" y="587" type="curve" smooth="yes"/>
      <point x="323" y="587"/>
      <point x="354" y="556"/>
      <point x="354" y="515" type="curve" smooth="yes"/>
      <point x="354" y="434"/>
      <point x="247" y="302"/>
      <point x="143" y="292" type="curve"/>
      <point x="127" y="332"/>
      <point x="108" y="348"/>
      <point x="79" y="348" type="curve" smooth="yes"/>
      <point x="45" y="348"/>
      <point x="22" y="325"/>
      <point x="22" y="291" type="curve" smooth="yes"/>
      <point x="22" y="221"/>
      <point x="122" y="189"/>
      <point x="233" y="230" type="curve" smooth="yes"/>
      <point x="335" y="267"/>
      <point x="410" y="356"/>
      <point x="410" y="464" type="curve" smooth="yes"/>
    </contour>
    <contour>
      <point x="120" y="151"/>
      <point x="154" y="46"/>
      <point x="198" y="-40" type="curve"/>
      <point x="271" y="7" type="line"/>
      <point x="229" y="60"/>
      <point x="175" y="161"/>
      <point x="141" y="282" type="curve"/>
      <point x="96" y="277" type="line"/>
    </contour>
  </outline>
</glyph>
<glyph name="ninedeva" format="1">
  <advance width="426"/>
  <unicode hex="096F"/>
  <note>
    dNine
  </note>
  <outline>
    <contour>
      <point x="17" y="648"/>
      <point x="-23" y="472"/>
      <point x="111" y="339" type="curve" smooth="yes"/>
      <point x="262" y="189"/>
      <point x="298" y="160"/>
      <point x="298" y="123" type="curve" smooth="yes"/>
      <point x="298" y="91"/>
      <point x="272" y="64"/>
      <point x="231" y="23" type="curve"/>
      <point x="300" y="-35" type="line"/>
      <point x="355" y="18"/>
      <point x="386" y="52"/>
      <point x="386" y="91" type="curve" smooth="yes"/>
      <point x="386" y="138"/>
      <point x="339" y="182"/>
      <point x="146" y="383" type="curve" smooth="yes"/>
      <point x="73" y="460"/>
      <point x="127" y="582"/>
      <point x="224" y="582" type="curve" smooth="yes"/>
      <point x="278" y="582"/>
      <point x="306" y="547"/>
      <point x="306" y="497" type="curve" smooth="yes"/>
      <point x="306" y="401"/>
      <point x="207" y="372"/>
      <point x="118" y="393" type="curve"/>
      <point x="145" y="356" type="line"/>
      <point x="264" y="292"/>
      <point x="389" y="362"/>
      <point x="389" y="453" type="curve" smooth="yes"/>
      <point x="389" y="554"/>
      <point x="285" y="650"/>
      <point x="168" y="649" type="curve" smooth="yes"/>
    </contour>
  </outline>
</glyph>
<glyph name="uni0975" format="1">
  <advance width="1027"/>
  <unicode hex="0975"/>
  <outline>
    <contour>
      <point x="845" y="519" type="line"/>
      <point x="843" y="686"/>
      <point x="748" y="701"/>
      <point x="659" y="678" type="curve" smooth="yes"/>
      <point x="591" y="660"/>
      <point x="560" y="661"/>
      <point x="514" y="732" type="curve"/>
      <point x="490" y="715" type="line"/>
      <point x="535" y="625"/>
      <point x="584" y="600"/>
      <point x="666" y="620" type="curve" smooth="yes"/>
      <point x="756" y="642"/>
      <point x="802" y="627"/>
      <point x="826" y="513" type="curve"/>
    </contour>
    <contour>
      <point x="862" y="549" type="line"/>
      <point x="932" y="745"/>
      <point x="846" y="799"/>
      <point x="728" y="786" type="curve" smooth="yes"/>
      <point x="641" y="776"/>
      <point x="593" y="777"/>
      <point x="559" y="855" type="curve"/>
      <point x="530" y="841" type="line"/>
      <point x="564" y="737"/>
      <point x="628" y="715"/>
      <point x="734" y="725" type="curve" smooth="yes"/>
      <point x="824" y="734"/>
      <point x="854" y="670"/>
      <point x="835" y="562" type="curve"/>
    </contour>
    <component base="aadeva"/>
    <contour>
      <point x="941" y="569" type="move" name="top"/>
    </contour>
  </outline>
</glyph>
<glyph name="uni097B" format="1">
  <advance width="614"/>
  <unicode hex="097B"/>
  <note>
    dGga
  </note>
  <outline>
    <contour>
      <point x="15" y="0" type="line"/>
      <point x="43" y="-64" type="line"/>
      <point x="472" y="-64" type="line"/>
      <point x="472" y="0" type="line"/>
    </contour>
    <component base="gadeva"/>
  </outline>
</glyph>
<glyph name="uni097C" format="1">
  <advance width="757"/>
  <unicode hex="097C"/>
  <note>
    dJja
  </note>
  <outline>
    <contour>
      <point x="34" y="0" type="line"/>
      <point x="62" y="-64" type="line"/>
      <point x="618" y="-64" type="line"/>
      <point x="618" y="0" type="line"/>
    </contour>
    <component base="jadeva"/>
  </outline>
</glyph>
<glyph name="uni097D" format="1">
  <advance width="541"/>
  <unicode hex="097D"/>
  <outline>
    <contour>
      <point x="421" y="514"/>
      <point x="328" y="583"/>
      <point x="243" y="583" type="curve" smooth="yes"/>
      <point x="180" y="583"/>
      <point x="112" y="557"/>
      <point x="60" y="507" type="curve"/>
      <point x="96" y="438" type="line"/>
      <point x="158" y="492"/>
      <point x="227" y="524"/>
      <point x="278" y="524" type="curve" smooth="yes"/>
      <point x="323" y="524"/>
      <point x="354" y="499"/>
      <point x="354" y="441" type="curve" smooth="yes"/>
      <point x="354" y="341"/>
      <point x="287" y="298"/>
      <point x="181" y="289" type="curve"/>
      <point x="181" y="0" type="line"/>
      <point x="260" y="0" type="line"/>
      <point x="260" y="235" type="line"/>
      <point x="361" y="258"/>
      <point x="421" y="327"/>
      <point x="421" y="410" type="curve" smooth="yes"/>
    </contour>
  </outline>
</glyph>
<glyph name="uni097E" format="1">
  <advance width="599"/>
  <unicode hex="097E"/>
  <note>
    dDdda
  </note>
  <outline>
    <contour>
      <point x="584" y="-104" type="line"/>
      <point x="556" y="-40" type="line"/>
      <point x="15" y="-40" type="line"/>
      <point x="43" y="-104" type="line"/>
    </contour>
    <contour>
      <point x="77" y="193" type="line"/>
      <point x="131" y="101"/>
      <point x="242" y="5"/>
      <point x="359" y="5" type="curve" smooth="yes"/>
      <point x="465" y="5"/>
      <point x="500" y="83"/>
      <point x="499" y="141" type="curve" smooth="yes"/>
      <point x="498" y="234"/>
      <point x="445" y="295"/>
      <point x="393" y="295" type="curve" smooth="yes"/>
      <point x="339" y="295"/>
      <point x="278" y="266"/>
      <point x="240" y="266" type="curve" smooth="yes"/>
      <point x="215" y="266"/>
      <point x="198" y="292"/>
      <point x="198" y="321" type="curve" smooth="yes"/>
      <point x="198" y="354"/>
      <point x="220" y="381"/>
      <point x="262" y="381" type="curve" smooth="yes"/>
      <point x="460" y="381" type="line"/>
      <point x="384" y="445" type="line"/>
      <point x="263" y="445" type="line" smooth="yes"/>
      <point x="177" y="445"/>
      <point x="137" y="410"/>
      <point x="139" y="349" type="curve" smooth="yes"/>
      <point x="141" y="287"/>
      <point x="185" y="237"/>
      <point x="229" y="219" type="curve" smooth="yes"/>
      <point x="289" y="194"/>
      <point x="352" y="229"/>
      <point x="425" y="220" type="curve" smooth="yes"/>
      <point x="469" y="214"/>
      <point x="465" y="80"/>
      <point x="318" y="81" type="curve" smooth="yes"/>
      <point x="256" y="82"/>
      <point x="178" y="122"/>
      <point x="109" y="215" type="curve"/>
    </contour>
    <contour>
      <point x="460" y="506" type="line"/>
      <point x="584" y="506" type="line"/>
      <point x="556" y="570" type="line"/>
      <point x="15" y="570" type="line"/>
      <point x="43" y="506" type="line"/>
      <point x="381" y="506" type="line"/>
      <point x="381" y="405" type="line"/>
      <point x="460" y="381" type="line"/>
    </contour>
  </outline>
</glyph>
<glyph name="guilsinglright" format="1">
  <advance width="383"/>
  <unicode hex="203A"/>
  <outline>
    <contour>
      <point x="48" y="517" type="line"/>
      <point x="243" y="280" type="line"/>
      <point x="243" y="278" type="line"/>
      <point x="46" y="25" type="line"/>
      <point x="77" y="-7" type="line"/>
      <point x="351" y="274" type="line"/>
      <point x="351" y="278" type="line"/>
      <point x="80" y="549" type="line"/>
    </contour>
  </outline>
</glyph>
<glyph name="rupeesign" format="1">
  <advance width="620"/>
  <unicode hex="20A8"/>
  <outline>
    <contour>
      <point x="573" y="514" type="line"/>
      <point x="550" y="580" type="line"/>
      <point x="44" y="580" type="line"/>
      <point x="72" y="514" type="line"/>
    </contour>
    <contour>
      <point x="272" y="514" type="line"/>
      <point x="331" y="508"/>
      <point x="363" y="466"/>
      <point x="363" y="408" type="curve" smooth="yes"/>
      <point x="363" y="334"/>
      <point x="302" y="288"/>
      <point x="177" y="288" type="curve"/>
      <point x="131" y="258" type="line"/>
      <point x="184" y="118"/>
      <point x="261" y="34"/>
      <point x="397" y="-37" type="curve"/>
      <point x="459" y="34" type="line"/>
      <point x="336" y="91"/>
      <point x="265" y="149"/>
      <point x="208" y="230" type="curve"/>
      <point x="365" y="230"/>
      <point x="446" y="299"/>
      <point x="446" y="398" type="curve" smooth="yes"/>
      <point x="446" y="487"/>
      <point x="388" y="526"/>
      <point x="303" y="548" type="curve"/>
    </contour>
    <contour>
      <point x="583" y="370" type="line"/>
      <point x="559" y="436" type="line"/>
      <point x="54" y="436" type="line"/>
      <point x="81" y="370" type="line"/>
    </contour>
  </outline>
</glyph>
<glyph name="partialdiff" format="1">
  <advance width="509"/>
  <unicode hex="2202"/>
  <outline>
    <contour>
      <point x="126" y="725" type="line"/>
      <point x="314" y="730"/>
      <point x="359" y="596"/>
      <point x="370" y="460" type="curve"/>
      <point x="343" y="488"/>
      <point x="308" y="501"/>
      <point x="271" y="503" type="curve" smooth="yes"/>
      <point x="148" y="507"/>
      <point x="37" y="387"/>
      <point x="37" y="204" type="curve" smooth="yes"/>
      <point x="37" y="59"/>
      <point x="117" y="-16"/>
      <point x="207" y="-16" type="curve" smooth="yes"/>
      <point x="337" y="-16"/>
      <point x="454" y="78"/>
      <point x="454" y="348" type="curve" smooth="yes"/>
      <point x="454" y="584"/>
      <point x="370" y="778"/>
      <point x="126" y="758" type="curve"/>
    </contour>
    <contour>
      <point x="315" y="463"/>
      <point x="349" y="445"/>
      <point x="373" y="401" type="curve"/>
      <point x="373" y="385"/>
      <point x="373" y="368"/>
      <point x="373" y="352" type="curve" smooth="yes"/>
      <point x="373" y="229"/>
      <point x="340" y="22"/>
      <point x="225" y="22" type="curve" smooth="yes"/>
      <point x="167" y="22"/>
      <point x="123" y="91"/>
      <point x="123" y="215" type="curve" smooth="yes"/>
      <point x="123" y="374"/>
      <point x="201" y="463"/>
      <point x="271" y="463" type="curve" smooth="yes"/>
    </contour>
  </outline>
</glyph>
<glyph name="radical" format="1">
  <advance width="843"/>
  <unicode hex="221A"/>
  <outline>
    <contour>
      <point x="561" y="862" type="line"/>
      <point x="345" y="124" type="line"/>
      <point x="198" y="500" type="line"/>
      <point x="2" y="500" type="line"/>
      <point x="2" y="465" type="line"/>
      <point x="122" y="462" type="line"/>
      <point x="125" y="446"/>
      <point x="134" y="422"/>
      <point x="151" y="381" type="curve" smooth="yes"/>
      <point x="307" y="-3" type="line"/>
      <point x="357" y="-3" type="line"/>
      <point x="601" y="824" type="line"/>
      <point x="866" y="821" type="line"/>
      <point x="866" y="862" type="line"/>
    </contour>
  </outline>
</glyph>
<glyph name="fi" format="1">
  <advance width="600"/>
  <unicode hex="FB01"/>
  <outline>
    <contour>
      <point x="28" y="0" type="line"/>
      <point x="276" y="0" type="line"/>
      <point x="284" y="39" type="line"/>
      <point x="195" y="62" type="line"/>
      <point x="195" y="397" type="line"/>
      <point x="352" y="413" type="line"/>
      <point x="375" y="408"/>
      <point x="402" y="394"/>
      <point x="419" y="377" type="curve"/>
      <point x="419" y="62" type="line"/>
      <point x="347" y="41" type="line"/>
      <point x="339" y="0" type="line"/>
      <point x="585" y="0" type="line"/>
      <point x="593" y="38" type="line"/>
      <point x="506" y="62" type="line"/>
      <point x="506" y="469" type="line"/>
      <point x="195" y="464" type="line"/>
      <point x="196" y="601"/>
      <point x="244" y="667"/>
      <point x="346" y="667" type="curve"/>
      <point x="359" y="667"/>
      <point x="374" y="667"/>
      <point x="388" y="664" type="curve"/>
      <point x="410" y="581" type="line"/>
      <point x="418" y="577"/>
      <point x="430" y="572"/>
      <point x="442" y="572" type="curve" smooth="yes"/>
      <point x="474" y="572"/>
      <point x="506" y="608"/>
      <point x="506" y="637" type="curve" smooth="yes"/>
      <point x="506" y="663"/>
      <point x="484" y="679"/>
      <point x="468" y="688" type="curve" smooth="yes"/>
      <point x="443" y="703"/>
      <point x="395" y="719"/>
      <point x="347" y="719" type="curve" smooth="yes"/>
      <point x="277" y="719"/>
      <point x="237" y="708"/>
      <point x="198" y="683" type="curve" smooth="yes"/>
      <point x="125" y="634"/>
      <point x="108" y="550"/>
      <point x="108" y="464" type="curve"/>
      <point x="36" y="464" type="line"/>
      <point x="27" y="420" type="line"/>
      <point x="108" y="396" type="line"/>
      <point x="108" y="66" type="line"/>
      <point x="37" y="42" type="line"/>
    </contour>
  </outline>
</glyph>
<glyph name="fl" format="1">
  <advance width="602"/>
  <unicode hex="FB02"/>
  <outline>
    <contour>
      <point x="505" y="719" type="line"/>
      <point x="420" y="707" type="line"/>
      <point x="392" y="718"/>
      <point x="355" y="720"/>
      <point x="333" y="720" type="curve" smooth="yes"/>
      <point x="185" y="720"/>
      <point x="108" y="630"/>
      <point x="108" y="464" type="curve"/>
      <point x="37" y="464" type="line"/>
      <point x="27" y="421" type="line"/>
      <point x="108" y="396" type="line"/>
      <point x="108" y="66" type="line"/>
      <point x="37" y="42" type="line"/>
      <point x="29" y="0" type="line"/>
      <point x="276" y="0" type="line"/>
      <point x="284" y="39" type="line"/>
      <point x="195" y="62" type="line"/>
      <point x="195" y="397" type="line"/>
      <point x="341" y="425" type="line"/>
      <point x="348" y="464" type="line"/>
      <point x="195" y="464" type="line"/>
      <point x="196" y="561"/>
      <point x="218" y="667"/>
      <point x="353" y="667" type="curve"/>
      <point x="367" y="667"/>
      <point x="381" y="667"/>
      <point x="397" y="664" type="curve"/>
      <point x="418" y="582" type="line"/>
      <point x="418" y="62" type="line"/>
      <point x="353" y="41" type="line"/>
      <point x="345" y="0" type="line"/>
      <point x="581" y="0" type="line"/>
      <point x="589" y="41" type="line"/>
      <point x="505" y="62" type="line"/>
    </contour>
  </outline>
</glyph>
<glyph name=".notdef" format="1">
  <advance width="500"/>
  <outline>
    <contour>
      <point x="27" y="-24" type="line"/>
      <point x="474" y="-24" type="line"/>
      <point x="474" y="700" type="line"/>
      <point x="27" y="700" type="line"/>
    </contour>
    <contour>
      <point x="87" y="641" type="line"/>
      <point x="414" y="641" type="line"/>
      <point x="414" y="36" type="line"/>
      <point x="87" y="36" type="line"/>
    </contour>
    <contour>
      <point x="342" y="204" type="line"/>
      <point x="381" y="246" type="line"/>
      <point x="152" y="474" type="line"/>
      <point x="114" y="433" type="line"/>
    </contour>
    <contour>
      <point x="347" y="474" type="line"/>
      <point x="119" y="246" type="line"/>
      <point x="157" y="204" type="line"/>
      <point x="386" y="433" type="line"/>
    </contour>
  </outline>
</glyph>
<glyph name="aivowelsigndeva_uni0930094D" format="1">
  <advance width="588"/>
  <outline>
    <contour>
      <point x="385" y="659" type="line"/>
      <point x="370" y="725"/>
      <point x="411" y="753"/>
      <point x="454" y="753" type="curve" smooth="yes"/>
      <point x="487" y="753"/>
      <point x="517" y="734"/>
      <point x="548" y="711" type="curve"/>
      <point x="533" y="782" type="line"/>
      <point x="505" y="806"/>
      <point x="466" y="820"/>
      <point x="435" y="820" type="curve" smooth="yes"/>
      <point x="360" y="820"/>
      <point x="302" y="756"/>
      <point x="358" y="635" type="curve"/>
    </contour>
    <component base="aivowelsigndeva"/>
    <contour>
      <point x="375" y="555" type="move" name="_top"/>
    </contour>
  </outline>
</glyph>
<glyph name="anusvaradeva.001" format="1">
  <advance width="250"/>
  <note>
    dAnusvara
  </note>
  <outline>
    <component base="nuktadeva" xOffset="24" yOffset="908"/>
    <contour>
      <point x="125" y="580" type="move" name="_top"/>
    </contour>
  </outline>
</glyph>
<glyph name="uni092C094D" format="1">
  <advance width="474"/>
  <outline>
    <contour>
      <point x="427" y="194" type="line"/>
      <point x="175" y="391" type="line"/>
      <point x="138" y="358" type="line"/>
      <point x="391" y="152" type="line"/>
    </contour>
    <contour>
      <point x="15" y="570" type="line"/>
      <point x="43" y="506" type="line"/>
      <point x="402" y="506" type="line"/>
      <point x="374" y="570" type="line"/>
    </contour>
    <contour>
      <point x="353" y="390"/>
      <point x="277" y="421"/>
      <point x="209" y="421" type="curve" smooth="yes"/>
      <point x="130" y="421"/>
      <point x="63" y="378"/>
      <point x="63" y="272" type="curve" smooth="yes"/>
      <point x="63" y="134"/>
      <point x="159" y="75"/>
      <point x="278" y="75" type="curve" smooth="yes"/>
      <point x="362" y="75"/>
      <point x="427" y="113"/>
      <point x="467" y="150" type="curve"/>
      <point x="444" y="227" type="line"/>
      <point x="376" y="167"/>
      <point x="286" y="143"/>
      <point x="221" y="143" type="curve" smooth="yes"/>
      <point x="161" y="143"/>
      <point x="123" y="170"/>
      <point x="123" y="227" type="curve" smooth="yes"/>
      <point x="123" y="301"/>
      <point x="182" y="345"/>
      <point x="263" y="345" type="curve" smooth="yes"/>
      <point x="301" y="345"/>
      <point x="344" y="335"/>
      <point x="388" y="315" type="curve"/>
      <point x="405" y="339" type="line"/>
    </contour>
  </outline>
</glyph>
<glyph name="uni092C094D_jadeva" format="1">
  <advance width="1077"/>
  <note>
    dBJa
  </note>
  <outline>
    <contour>
      <point x="1034" y="570" type="line"/>
      <point x="15" y="570" type="line"/>
      <point x="43" y="506" type="line"/>
      <point x="859" y="506" type="line"/>
      <point x="859" y="401" type="line"/>
      <point x="537" y="401" type="line"/>
      <point x="544" y="358" type="line"/>
      <point x="637" y="346"/>
      <point x="690" y="265"/>
      <point x="690" y="202" type="curve" smooth="yes"/>
      <point x="690" y="160"/>
      <point x="667" y="126"/>
      <point x="618" y="126" type="curve" smooth="yes"/>
      <point x="549" y="126"/>
      <point x="488" y="181"/>
      <point x="409" y="341" type="curve"/>
      <point x="332" y="399"/>
      <point x="283" y="421"/>
      <point x="218" y="421" type="curve" smooth="yes"/>
      <point x="112" y="421"/>
      <point x="63" y="362"/>
      <point x="63" y="262" type="curve" smooth="yes"/>
      <point x="63" y="155"/>
      <point x="130" y="65"/>
      <point x="241" y="65" type="curve" smooth="yes"/>
      <point x="303" y="65"/>
      <point x="371" y="88"/>
      <point x="448" y="166" type="curve"/>
      <point x="498" y="86"/>
      <point x="556" y="42"/>
      <point x="640" y="42" type="curve" smooth="yes"/>
      <point x="729" y="42"/>
      <point x="770" y="98"/>
      <point x="770" y="164" type="curve" smooth="yes"/>
      <point x="770" y="220"/>
      <point x="741" y="284"/>
      <point x="687" y="328" type="curve"/>
      <point x="859" y="328" type="line"/>
      <point x="859" y="0" type="line"/>
      <point x="938" y="0" type="line"/>
      <point x="938" y="506" type="line"/>
      <point x="1062" y="506" type="line"/>
    </contour>
    <contour>
      <point x="414" y="199" type="line"/>
      <point x="169" y="353" type="line"/>
      <point x="111" y="332" type="line"/>
      <point x="372" y="171" type="line"/>
    </contour>
    <contour>
      <point x="352" y="169"/>
      <point x="277" y="142"/>
      <point x="218" y="142" type="curve" smooth="yes"/>
      <point x="157" y="142"/>
      <point x="114" y="171"/>
      <point x="114" y="234" type="curve" smooth="yes"/>
      <point x="114" y="294"/>
      <point x="150" y="338"/>
      <point x="227" y="338" type="curve" smooth="yes"/>
      <point x="268" y="338"/>
      <point x="323" y="325"/>
      <point x="384" y="292" type="curve"/>
      <point x="396" y="266"/>
      <point x="407" y="241"/>
      <point x="419" y="218" type="curve"/>
    </contour>
    <contour>
      <point x="899" y="570" type="move" name="top"/>
    </contour>
    <contour>
      <point x="899" y="0" type="move" name="bottom"/>
    </contour>
  </outline>
</glyph>
<glyph name="uni092D094D_radeva" format="1">
  <advance width="655"/>
  <note>
    dBhRa
  </note>
  <outline>
    <contour>
      <point x="469" y="224" type="line"/>
      <point x="181" y="7" type="line"/>
      <point x="239" y="-54" type="line"/>
      <point x="469" y="145" type="line"/>
    </contour>
    <component base="bhadeva"/>
    <contour>
      <point x="500" y="570" type="move" name="top"/>
    </contour>
    <contour>
      <point x="500" y="0" type="move" name="bottom"/>
    </contour>
  </outline>
</glyph>
<glyph name="uni091A094D_cadeva.alt" format="1">
  <advance width="688"/>
  <note>
    dCCa.alt
  </note>
  <outline>
    <contour>
      <point x="470" y="0" type="line"/>
      <point x="549" y="0" type="line"/>
      <point x="549" y="506" type="line"/>
      <point x="673" y="506" type="line"/>
      <point x="645" y="570" type="line"/>
      <point x="15" y="570" type="line"/>
      <point x="43" y="506" type="line"/>
      <point x="470" y="506" type="line"/>
    </contour>
    <contour>
      <point x="242" y="421"/>
      <point x="161" y="390"/>
      <point x="161" y="319" type="curve" smooth="yes"/>
      <point x="161" y="250"/>
      <point x="238" y="192"/>
      <point x="349" y="193" type="curve" smooth="yes"/>
      <point x="415" y="194"/>
      <point x="464" y="215"/>
      <point x="527" y="246" type="curve"/>
      <point x="527" y="376" type="line"/>
      <point x="464" y="278"/>
      <point x="379" y="242"/>
      <point x="311" y="243" type="curve" smooth="yes"/>
      <point x="256" y="243"/>
      <point x="232" y="267"/>
      <point x="232" y="296" type="curve" smooth="yes"/>
      <point x="232" y="338"/>
      <point x="282" y="388"/>
      <point x="373" y="388" type="curve"/>
      <point x="373" y="421" type="line"/>
    </contour>
    <contour>
      <point x="75" y="452" type="line"/>
      <point x="103" y="388" type="line"/>
      <point x="391" y="388" type="line"/>
      <point x="364" y="452" type="line"/>
    </contour>
    <contour>
      <point x="201" y="94"/>
      <point x="133" y="44"/>
      <point x="151" y="-24" type="curve" smooth="yes"/>
      <point x="167" y="-82"/>
      <point x="256" y="-118"/>
      <point x="363" y="-88" type="curve" smooth="yes"/>
      <point x="426" y="-70"/>
      <point x="468" y="-37"/>
      <point x="521" y="19" type="curve"/>
      <point x="487" y="135" type="line"/>
      <point x="452" y="24"/>
      <point x="379" y="-33"/>
      <point x="313" y="-50" type="curve" smooth="yes"/>
      <point x="260" y="-64"/>
      <point x="231" y="-47"/>
      <point x="223" y="-19" type="curve" smooth="yes"/>
      <point x="212" y="22"/>
      <point x="248" y="83"/>
      <point x="336" y="106" type="curve"/>
      <point x="327" y="128" type="line"/>
    </contour>
    <contour>
      <point x="31" y="91" type="line"/>
      <point x="75" y="37" type="line"/>
      <point x="353" y="111" type="line"/>
      <point x="310" y="166" type="line"/>
    </contour>
    <contour>
      <point x="513" y="570" type="move" name="top"/>
    </contour>
    <contour>
      <point x="514" y="0" type="move" name="bottom"/>
    </contour>
  </outline>
</glyph>
<glyph name="uni091A094D091B094D_vadeva" format="1">
  <advance width="1015"/>
  <note>
    dCChVa
  </note>
  <outline>
    <contour>
      <point x="176" y="341"/>
      <point x="137" y="303"/>
      <point x="137" y="237" type="curve" smooth="yes"/>
      <point x="137" y="62"/>
      <point x="384" y="12"/>
      <point x="551" y="155" type="curve"/>
      <point x="503" y="226" type="line"/>
      <point x="440" y="125"/>
      <point x="250" y="80"/>
      <point x="226" y="175" type="curve" smooth="yes"/>
      <point x="207" y="251"/>
      <point x="267" y="319"/>
      <point x="369" y="318" type="curve"/>
      <point x="239" y="371" type="line"/>
    </contour>
    <contour>
      <point x="45" y="382" type="line"/>
      <point x="73" y="318" type="line"/>
      <point x="376" y="318" type="line"/>
      <point x="349" y="382" type="line"/>
    </contour>
    <contour>
      <point x="15" y="570" type="line"/>
      <point x="43" y="506" type="line"/>
      <point x="449" y="506" type="line"/>
      <point x="421" y="570" type="line"/>
    </contour>
    <component base="uni091B094D_vadeva" xOffset="282"/>
  </outline>
</glyph>
<glyph name="uni091B094D" format="1">
  <advance width="739"/>
  <outline>
    <contour>
      <point x="15" y="570" type="line"/>
      <point x="43" y="506" type="line"/>
      <point x="709" y="506" type="line"/>
      <point x="681" y="570" type="line"/>
    </contour>
    <contour>
      <point x="151" y="426"/>
      <point x="97" y="389"/>
      <point x="97" y="322" type="curve" smooth="yes"/>
      <point x="97" y="271"/>
      <point x="129" y="226"/>
      <point x="213" y="192" type="curve"/>
      <point x="230" y="219" type="line"/>
      <point x="193" y="237"/>
      <point x="163" y="269"/>
      <point x="163" y="310" type="curve" smooth="yes"/>
      <point x="163" y="354"/>
      <point x="199" y="370"/>
      <point x="249" y="368" type="curve" smooth="yes"/>
      <point x="273" y="368"/>
      <point x="297" y="362"/>
      <point x="325" y="353" type="curve"/>
      <point x="306" y="415" type="line"/>
      <point x="279" y="423"/>
      <point x="255" y="426"/>
      <point x="230" y="426" type="curve" smooth="yes"/>
    </contour>
    <contour>
      <point x="467" y="414"/>
      <point x="418" y="379"/>
      <point x="418" y="314" type="curve" smooth="yes"/>
      <point x="418" y="218"/>
      <point x="519" y="161"/>
      <point x="615" y="134" type="curve"/>
      <point x="630" y="164" type="line"/>
      <point x="538" y="207"/>
      <point x="501" y="256"/>
      <point x="501" y="311" type="curve" smooth="yes"/>
      <point x="501" y="351"/>
      <point x="520" y="369"/>
      <point x="547" y="369" type="curve" smooth="yes"/>
      <point x="585" y="369"/>
      <point x="619" y="333"/>
      <point x="619" y="260" type="curve" smooth="yes"/>
      <point x="619" y="122"/>
      <point x="462" y="46"/>
      <point x="343" y="46" type="curve" smooth="yes"/>
      <point x="270" y="46"/>
      <point x="211" y="74"/>
      <point x="211" y="134" type="curve" smooth="yes"/>
      <point x="211" y="204"/>
      <point x="272" y="246"/>
      <point x="367" y="225" type="curve"/>
      <point x="358" y="283" type="line"/>
      <point x="252" y="314"/>
      <point x="157" y="260"/>
      <point x="157" y="157" type="curve" smooth="yes"/>
      <point x="157" y="58"/>
      <point x="243" y="-21"/>
      <point x="376" y="-21" type="curve" smooth="yes"/>
      <point x="531" y="-21"/>
      <point x="688" y="86"/>
      <point x="688" y="244" type="curve" smooth="yes"/>
      <point x="688" y="349"/>
      <point x="617" y="414"/>
      <point x="530" y="414" type="curve" smooth="yes"/>
    </contour>
  </outline>
</glyph>
<glyph name="uni091B094D_vadeva" format="1">
  <advance width="734"/>
  <note>
    dChVa
  </note>
  <outline>
    <contour>
      <point x="14" y="570" type="line"/>
      <point x="42" y="506" type="line"/>
      <point x="522" y="506" type="line"/>
      <point x="522" y="440" type="line"/>
      <point x="601" y="410" type="line"/>
      <point x="601" y="506" type="line"/>
      <point x="718" y="506" type="line"/>
      <point x="690" y="570" type="line"/>
    </contour>
    <contour>
      <point x="460" y="457"/>
      <point x="415" y="427"/>
      <point x="415" y="370" type="curve" smooth="yes"/>
      <point x="415" y="287"/>
      <point x="507" y="237"/>
      <point x="594" y="214" type="curve"/>
      <point x="608" y="248" type="line"/>
      <point x="524" y="285"/>
      <point x="491" y="320"/>
      <point x="491" y="368" type="curve" smooth="yes"/>
      <point x="491" y="402"/>
      <point x="508" y="418"/>
      <point x="532" y="418" type="curve" smooth="yes"/>
      <point x="567" y="418"/>
      <point x="598" y="387"/>
      <point x="598" y="323" type="curve" smooth="yes"/>
      <point x="598" y="202"/>
      <point x="430" y="139"/>
      <point x="339" y="139" type="curve" smooth="yes"/>
      <point x="294" y="139"/>
      <point x="251" y="155"/>
      <point x="251" y="214" type="curve" smooth="yes"/>
      <point x="251" y="275"/>
      <point x="300" y="299"/>
      <point x="369" y="284" type="curve"/>
      <point x="361" y="343" type="line"/>
      <point x="264" y="370"/>
      <point x="178" y="323"/>
      <point x="178" y="239" type="curve" smooth="yes"/>
      <point x="178" y="139"/>
      <point x="279" y="89"/>
      <point x="383" y="89" type="curve" smooth="yes"/>
      <point x="521" y="89"/>
      <point x="670" y="163"/>
      <point x="670" y="301" type="curve" smooth="yes"/>
      <point x="670" y="392"/>
      <point x="596" y="457"/>
      <point x="517" y="457" type="curve" smooth="yes"/>
    </contour>
    <contour>
      <point x="172" y="468"/>
      <point x="123" y="435"/>
      <point x="123" y="385" type="curve" smooth="yes"/>
      <point x="123" y="340"/>
      <point x="162" y="276"/>
      <point x="247" y="273" type="curve"/>
      <point x="259" y="298" type="line"/>
      <point x="211" y="309"/>
      <point x="191" y="337"/>
      <point x="191" y="367" type="curve" smooth="yes"/>
      <point x="191" y="401"/>
      <point x="216" y="419"/>
      <point x="262" y="417" type="curve" smooth="yes"/>
      <point x="283" y="417"/>
      <point x="305" y="412"/>
      <point x="331" y="404" type="curve"/>
      <point x="313" y="458" type="line"/>
      <point x="289" y="465"/>
      <point x="267" y="468"/>
      <point x="244" y="468" type="curve" smooth="yes"/>
    </contour>
    <component base="vadeva.post" xOffset="124"/>
    <contour>
      <point x="562" y="570" type="move" name="top"/>
    </contour>
    <contour>
      <point x="534" y="-283" type="move" name="bottom"/>
    </contour>
  </outline>
</glyph>
<glyph name="uni0926094D092C094D_radeva" format="1">
  <advance width="594"/>
  <note>
    dDBRa
  </note>
  <outline>
    <contour>
      <point x="236" y="-208" type="line"/>
      <point x="314" y="-255" type="line"/>
      <point x="458" y="-44" type="line"/>
      <point x="429" y="17" type="line"/>
    </contour>
    <component base="uni0926094D092C"/>
  </outline>
</glyph>
<glyph name="uni0926094D092C_uvowelsigndeva" format="1">
  <advance width="551"/>
  <outline>
    <contour>
      <point x="460" y="445" type="line"/>
      <point x="312" y="445" type="line" smooth="yes"/>
      <point x="200" y="445"/>
      <point x="109" y="390"/>
      <point x="109" y="289" type="curve" smooth="yes"/>
      <point x="109" y="188"/>
      <point x="199" y="81"/>
      <point x="345" y="81" type="curve" smooth="yes"/>
      <point x="397" y="81"/>
      <point x="439" y="94"/>
      <point x="486" y="124" type="curve"/>
      <point x="440" y="189" type="line"/>
      <point x="396" y="155"/>
      <point x="357" y="136"/>
      <point x="307" y="136" type="curve" smooth="yes"/>
      <point x="237" y="136"/>
      <point x="182" y="187"/>
      <point x="182" y="251" type="curve" smooth="yes"/>
      <point x="182" y="318"/>
      <point x="230" y="373"/>
      <point x="311" y="373" type="curve" smooth="yes"/>
      <point x="460" y="373" type="line"/>
    </contour>
    <contour>
      <point x="460" y="373" type="line"/>
      <point x="460" y="506" type="line"/>
      <point x="604" y="506" type="line"/>
      <point x="576" y="570" type="line"/>
      <point x="15" y="570" type="line"/>
      <point x="43" y="506" type="line"/>
      <point x="381" y="506" type="line"/>
      <point x="381" y="396" type="line"/>
    </contour>
    <contour>
      <point x="445" y="93" type="line"/>
      <point x="406" y="-4"/>
      <point x="346" y="-75"/>
      <point x="256" y="-75" type="curve" smooth="yes"/>
      <point x="212" y="-75"/>
      <point x="187" y="-60"/>
      <point x="187" y="-15" type="curve" smooth="yes"/>
      <point x="187" y="23"/>
      <point x="202" y="77"/>
      <point x="296" y="98" type="curve"/>
      <point x="195" y="152" type="line"/>
      <point x="145" y="103"/>
      <point x="118" y="84"/>
      <point x="118" y="18" type="curve" smooth="yes"/>
      <point x="118" y="-50"/>
      <point x="194" y="-127"/>
      <point x="295" y="-127" type="curve" smooth="yes"/>
      <point x="386" y="-127"/>
      <point x="451" y="-74"/>
      <point x="499" y="16" type="curve"/>
    </contour>
    <contour>
      <point x="171" y="59" type="line"/>
      <point x="398" y="-68" type="line"/>
      <point x="421" y="-34" type="line"/>
      <point x="195" y="96" type="line"/>
    </contour>
    <contour>
      <point x="615" y="-35" type="line"/>
      <point x="489" y="125" type="line"/>
      <point x="511" y="140"/>
      <point x="537" y="163"/>
      <point x="537" y="199" type="curve" smooth="yes"/>
      <point x="537" y="241"/>
      <point x="502" y="267"/>
      <point x="470" y="267" type="curve" smooth="yes"/>
      <point x="430" y="267"/>
      <point x="375" y="232"/>
      <point x="401" y="153" type="curve" smooth="yes"/>
      <point x="419" y="91"/>
      <point x="482" y="11"/>
      <point x="537" y="-63" type="curve"/>
    </contour>
    <component base="uvowelsigndeva" xOffset="448" yOffset="-19"/>
    <contour>
      <point x="424" y="570" type="move" name="top"/>
    </contour>
    <contour>
      <point x="482" y="-124" type="move" name="bottom"/>
    </contour>
  </outline>
</glyph>
<glyph name="uni0926094D_bhadeva" format="1">
  <advance width="709"/>
  <note>
    dDBha
  </note>
  <outline>
    <contour>
      <point x="627" y="241"/>
      <point x="592" y="267"/>
      <point x="560" y="267" type="curve" smooth="yes"/>
      <point x="520" y="267"/>
      <point x="465" y="232"/>
      <point x="491" y="153" type="curve"/>
      <point x="631" y="-56" type="line"/>
      <point x="694" y="-2" type="line"/>
      <point x="579" y="125" type="line"/>
      <point x="601" y="140"/>
      <point x="627" y="163"/>
      <point x="627" y="199" type="curve" smooth="yes"/>
    </contour>
    <contour>
      <point x="550" y="445" type="line"/>
      <point x="402" y="445" type="line" smooth="yes"/>
      <point x="290" y="445"/>
      <point x="199" y="390"/>
      <point x="199" y="289" type="curve" smooth="yes"/>
      <point x="199" y="188"/>
      <point x="289" y="81"/>
      <point x="435" y="81" type="curve" smooth="yes"/>
      <point x="487" y="81"/>
      <point x="529" y="94"/>
      <point x="576" y="124" type="curve"/>
      <point x="530" y="189" type="line"/>
      <point x="486" y="155"/>
      <point x="447" y="136"/>
      <point x="397" y="136" type="curve" smooth="yes"/>
      <point x="327" y="136"/>
      <point x="272" y="187"/>
      <point x="272" y="251" type="curve" smooth="yes"/>
      <point x="272" y="318"/>
      <point x="320" y="373"/>
      <point x="401" y="373" type="curve" smooth="yes"/>
      <point x="550" y="373" type="line"/>
    </contour>
    <contour>
      <point x="550" y="373" type="line"/>
      <point x="550" y="506" type="line"/>
      <point x="694" y="506" type="line"/>
      <point x="666" y="570" type="line"/>
      <point x="15" y="570" type="line"/>
      <point x="43" y="506" type="line"/>
      <point x="471" y="506" type="line"/>
      <point x="471" y="396" type="line"/>
    </contour>
    <contour>
      <point x="209" y="43" type="line"/>
      <point x="145" y="26"/>
      <point x="99" y="70"/>
      <point x="99" y="99" type="curve" smooth="yes"/>
      <point x="99" y="113"/>
      <point x="108" y="124"/>
      <point x="127" y="124" type="curve" smooth="yes"/>
      <point x="168" y="124"/>
      <point x="222" y="33"/>
      <point x="249" y="-104" type="curve"/>
      <point x="570" y="57" type="line"/>
      <point x="538" y="113" type="line"/>
      <point x="303" y="0" type="line"/>
      <point x="269" y="70" type="line" smooth="yes"/>
      <point x="236" y="137"/>
      <point x="173" y="157"/>
      <point x="114" y="157" type="curve" smooth="yes"/>
      <point x="61" y="157"/>
      <point x="18" y="132"/>
      <point x="26" y="79" type="curve" smooth="yes"/>
      <point x="35" y="28"/>
      <point x="127" y="-22"/>
      <point x="223" y="4" type="curve"/>
    </contour>
    <contour>
      <point x="371" y="-154"/>
      <point x="369" y="-135"/>
      <point x="352" y="-101" type="curve" smooth="yes"/>
      <point x="318" y="-31" type="line"/>
      <point x="263" y="-19" type="line"/>
      <point x="200" y="-51" type="line" smooth="yes"/>
      <point x="170" y="-66"/>
      <point x="165" y="-82"/>
      <point x="174" y="-100" type="curve" smooth="yes"/>
      <point x="200" y="-150"/>
      <point x="314" y="-185"/>
      <point x="349" y="-166" type="curve" smooth="yes"/>
    </contour>
    <contour>
      <point x="511" y="570" type="move" name="top"/>
    </contour>
    <contour>
      <point x="616" y="-39" type="move" name="bottom"/>
    </contour>
  </outline>
</glyph>
<glyph name="uni0926094D0926094D092F" format="1">
  <advance width="1049"/>
  <note>
    dDDYa
  </note>
  <outline>
    <contour>
      <point x="343" y="455" type="line"/>
      <point x="369" y="391" type="line"/>
      <point x="581" y="391" type="line" smooth="yes"/>
      <point x="645" y="391"/>
      <point x="666" y="380"/>
      <point x="673" y="355" type="curve" smooth="yes"/>
      <point x="683" y="321"/>
      <point x="663" y="278"/>
      <point x="522" y="232" type="curve"/>
      <point x="582" y="56"/>
      <point x="736" y="15"/>
      <point x="842" y="99" type="curve"/>
      <point x="842" y="0" type="line"/>
      <point x="921" y="0" type="line"/>
      <point x="921" y="506" type="line"/>
      <point x="1034" y="506" type="line"/>
      <point x="1006" y="570" type="line"/>
      <point x="495" y="570" type="line"/>
      <point x="523" y="506" type="line"/>
      <point x="842" y="506" type="line"/>
      <point x="842" y="192" type="line"/>
      <point x="763" y="117"/>
      <point x="636" y="88"/>
      <point x="590" y="185" type="curve"/>
      <point x="729" y="236"/>
      <point x="758" y="303"/>
      <point x="724" y="380" type="curve" smooth="yes"/>
      <point x="704" y="426"/>
      <point x="661" y="455"/>
      <point x="589" y="455" type="curve" smooth="yes"/>
    </contour>
    <component base="uni0926094D_dadeva"/>
    <contour>
      <point x="881" y="570" type="move" name="top"/>
    </contour>
    <contour>
      <point x="881" y="0" type="move" name="bottom"/>
    </contour>
  </outline>
</glyph>
<glyph name="uni0926094D_dadeva" format="1">
  <advance width="570"/>
  <note>
    dDDa
  </note>
  <outline>
    <contour>
      <point x="417" y="-5" type="line"/>
      <point x="452" y="-60"/>
      <point x="486" y="-103"/>
      <point x="522" y="-156" type="curve"/>
      <point x="585" y="-102" type="line"/>
      <point x="474" y="22" type="line"/>
    </contour>
    <contour>
      <point x="444" y="-12" type="line"/>
      <point x="500" y="12"/>
      <point x="521" y="48"/>
      <point x="521" y="96" type="curve" smooth="yes"/>
      <point x="521" y="136"/>
      <point x="486" y="167"/>
      <point x="447" y="167" type="curve" smooth="yes"/>
      <point x="398" y="167"/>
      <point x="359" y="134"/>
      <point x="380" y="60" type="curve"/>
    </contour>
    <contour>
      <point x="165" y="153"/>
      <point x="204" y="206"/>
      <point x="320" y="213" type="curve"/>
      <point x="304" y="289" type="line"/>
      <point x="260" y="278"/>
      <point x="214" y="270"/>
      <point x="189" y="270" type="curve" smooth="yes"/>
      <point x="169" y="270"/>
      <point x="151" y="284"/>
      <point x="144" y="303" type="curve" smooth="yes"/>
      <point x="130" y="339"/>
      <point x="145" y="391"/>
      <point x="216" y="391" type="curve" smooth="yes"/>
      <point x="460" y="391" type="line"/>
      <point x="460" y="506" type="line"/>
      <point x="584" y="506" type="line"/>
      <point x="556" y="570" type="line"/>
      <point x="15" y="570" type="line"/>
      <point x="43" y="506" type="line"/>
      <point x="381" y="506" type="line"/>
      <point x="381" y="455" type="line"/>
      <point x="194" y="455" type="line" smooth="yes"/>
      <point x="60" y="455"/>
      <point x="29" y="352"/>
      <point x="79" y="284" type="curve" smooth="yes"/>
      <point x="96" y="262"/>
      <point x="121" y="245"/>
      <point x="151" y="238" type="curve"/>
      <point x="121" y="217"/>
      <point x="102" y="176"/>
      <point x="102" y="136" type="curve" smooth="yes"/>
      <point x="102" y="52"/>
      <point x="183" y="-37"/>
      <point x="323" y="-37" type="curve" smooth="yes"/>
      <point x="386" y="-37"/>
      <point x="426" y="-19"/>
      <point x="471" y="9" type="curve"/>
      <point x="471" y="114" type="line"/>
      <point x="405" y="61"/>
      <point x="333" y="33"/>
      <point x="262" y="33" type="curve" smooth="yes"/>
      <point x="197" y="33"/>
      <point x="165" y="56"/>
      <point x="165" y="109" type="curve" smooth="yes"/>
    </contour>
    <contour>
      <point x="416" y="570" type="move" name="top"/>
    </contour>
    <contour>
      <point x="520" y="-112" type="move" name="bottom"/>
    </contour>
  </outline>
</glyph>
<glyph name="uni0926094D_ghadeva" format="1">
  <advance width="706"/>
  <note>
    dDGha
  </note>
  <outline>
    <contour>
      <point x="619" y="241"/>
      <point x="584" y="267"/>
      <point x="552" y="267" type="curve" smooth="yes"/>
      <point x="512" y="267"/>
      <point x="457" y="232"/>
      <point x="483" y="153" type="curve" smooth="yes"/>
      <point x="502" y="94"/>
      <point x="627" y="-28"/>
      <point x="673" y="-96" type="curve"/>
      <point x="736" y="-62" type="line"/>
      <point x="571" y="125" type="line"/>
      <point x="593" y="140"/>
      <point x="619" y="163"/>
      <point x="619" y="199" type="curve" smooth="yes"/>
    </contour>
    <contour>
      <point x="479" y="445" type="line"/>
      <point x="394" y="445" type="line" smooth="yes"/>
      <point x="282" y="445"/>
      <point x="191" y="390"/>
      <point x="191" y="289" type="curve" smooth="yes"/>
      <point x="191" y="188"/>
      <point x="281" y="81"/>
      <point x="427" y="81" type="curve" smooth="yes"/>
      <point x="479" y="81"/>
      <point x="521" y="94"/>
      <point x="568" y="124" type="curve"/>
      <point x="512" y="202" type="line"/>
      <point x="468" y="168"/>
      <point x="429" y="149"/>
      <point x="379" y="149" type="curve" smooth="yes"/>
      <point x="309" y="149"/>
      <point x="264" y="187"/>
      <point x="264" y="251" type="curve" smooth="yes"/>
      <point x="264" y="318"/>
      <point x="312" y="373"/>
      <point x="393" y="373" type="curve" smooth="yes"/>
      <point x="546" y="373" type="line"/>
    </contour>
    <contour>
      <point x="267" y="142" type="line"/>
      <point x="229" y="106"/>
      <point x="200" y="77"/>
      <point x="200" y="19" type="curve" smooth="yes"/>
      <point x="200" y="-52"/>
      <point x="271" y="-137"/>
      <point x="377" y="-137" type="curve" smooth="yes"/>
      <point x="471" y="-137"/>
      <point x="525" y="-71"/>
      <point x="573" y="31" type="curve"/>
      <point x="517" y="105" type="line"/>
      <point x="479" y="-2"/>
      <point x="427" y="-77"/>
      <point x="337" y="-77" type="curve" smooth="yes"/>
      <point x="290" y="-77"/>
      <point x="265" y="-48"/>
      <point x="265" y="-13" type="curve" smooth="yes"/>
      <point x="265" y="29"/>
      <point x="301" y="80"/>
      <point x="378" y="99" type="curve"/>
    </contour>
    <contour>
      <point x="71" y="283"/>
      <point x="30" y="203"/>
      <point x="53" y="115" type="curve" smooth="yes"/>
      <point x="69" y="51"/>
      <point x="150" y="-25"/>
      <point x="253" y="3" type="curve"/>
      <point x="250" y="58" type="line"/>
      <point x="186" y="21"/>
      <point x="133" y="46"/>
      <point x="119" y="94" type="curve" smooth="yes"/>
      <point x="98" y="166"/>
      <point x="142" y="232"/>
      <point x="214" y="225" type="curve"/>
      <point x="205" y="295" type="line"/>
    </contour>
    <contour>
      <point x="467" y="373" type="line"/>
      <point x="546" y="373" type="line"/>
      <point x="546" y="506" type="line"/>
      <point x="684" y="506" type="line"/>
      <point x="656" y="570" type="line"/>
      <point x="15" y="570" type="line"/>
      <point x="43" y="506" type="line"/>
      <point x="467" y="506" type="line"/>
    </contour>
    <contour>
      <point x="507" y="570" type="move" name="top"/>
    </contour>
    <contour>
      <point x="590" y="-94" type="move" name="bottom"/>
    </contour>
  </outline>
</glyph>
<glyph name="uni0926094D_madeva" format="1">
  <advance width="757"/>
  <note>
    dDMa
  </note>
  <outline>
    <contour>
      <point x="289" y="298" type="line"/>
      <point x="289" y="120" type="line"/>
      <point x="559" y="120" type="line"/>
      <point x="559" y="0" type="line"/>
      <point x="638" y="0" type="line"/>
      <point x="638" y="506" type="line"/>
      <point x="742" y="506" type="line"/>
      <point x="714" y="570" type="line"/>
      <point x="15" y="570" type="line"/>
      <point x="43" y="506" type="line"/>
      <point x="559" y="506" type="line"/>
      <point x="559" y="184" type="line"/>
      <point x="368" y="184" type="line"/>
      <point x="368" y="298" type="line"/>
    </contour>
    <contour>
      <point x="97" y="245"/>
      <point x="186" y="235"/>
      <point x="318" y="235" type="curve"/>
      <point x="312" y="298" type="line"/>
      <point x="165" y="298"/>
      <point x="126" y="307"/>
      <point x="119" y="337" type="curve" smooth="yes"/>
      <point x="109" y="374"/>
      <point x="143" y="391"/>
      <point x="204" y="391" type="curve" smooth="yes"/>
      <point x="368" y="391" type="line"/>
      <point x="368" y="506" type="line"/>
      <point x="289" y="506" type="line"/>
      <point x="289" y="455" type="line"/>
      <point x="202" y="455" type="line" smooth="yes"/>
      <point x="99" y="455"/>
      <point x="50" y="414"/>
      <point x="72" y="334" type="curve" smooth="yes"/>
    </contour>
    <component base="deva_knot" xOffset="175" yOffset="-139"/>
    <contour>
      <point x="605" y="570" type="move" name="top"/>
    </contour>
    <contour>
      <point x="599" y="0" type="move" name="bottom"/>
    </contour>
  </outline>
</glyph>
<glyph name="uni0926094D_nadeva_uuvowelsignd" format="1">
  <advance width="629"/>
  <outline>
    <contour>
      <point x="509" y="134"/>
      <point x="479" y="156"/>
      <point x="447" y="156" type="curve" smooth="yes"/>
      <point x="407" y="156"/>
      <point x="361" y="125"/>
      <point x="387" y="46" type="curve" smooth="yes"/>
      <point x="400" y="5"/>
      <point x="431" y="-40"/>
      <point x="464" y="-87" type="curve"/>
      <point x="538" y="-59" type="line"/>
      <point x="466" y="18" type="line"/>
      <point x="488" y="33"/>
      <point x="509" y="56"/>
      <point x="509" y="91" type="curve" smooth="yes"/>
    </contour>
    <contour>
      <point x="428" y="104" type="line"/>
      <point x="382" y="67"/>
      <point x="344" y="56"/>
      <point x="306" y="56" type="curve" smooth="yes"/>
      <point x="225" y="56"/>
      <point x="174" y="105"/>
      <point x="174" y="187" type="curve" smooth="yes"/>
      <point x="174" y="273"/>
      <point x="228" y="323"/>
      <point x="309" y="323" type="curve" smooth="yes"/>
      <point x="460" y="323" type="line"/>
      <point x="460" y="506" type="line"/>
      <point x="604" y="506" type="line"/>
      <point x="576" y="570" type="line"/>
      <point x="15" y="570" type="line"/>
      <point x="43" y="506" type="line"/>
      <point x="381" y="506" type="line"/>
      <point x="381" y="396" type="line"/>
      <point x="310" y="396" type="line" smooth="yes"/>
      <point x="198" y="396"/>
      <point x="113" y="337"/>
      <point x="113" y="224" type="curve" smooth="yes"/>
      <point x="113" y="110"/>
      <point x="198" y="-6"/>
      <point x="346" y="-6" type="curve" smooth="yes"/>
      <point x="392" y="-6"/>
      <point x="431" y="6"/>
      <point x="471" y="33" type="curve"/>
    </contour>
    <contour>
      <point x="210" y="-15"/>
      <point x="57" y="-45"/>
      <point x="89" y="-143" type="curve" smooth="yes"/>
      <point x="103" y="-186"/>
      <point x="175" y="-211"/>
      <point x="215" y="-187" type="curve" smooth="yes"/>
      <point x="245" y="-170"/>
      <point x="244" y="-137"/>
      <point x="204" y="-81" type="curve"/>
      <point x="402" y="1" type="line"/>
      <point x="353" y="36" type="line"/>
    </contour>
    <contour>
      <point x="439" y="-225"/>
      <point x="382" y="-228"/>
      <point x="367" y="-186" type="curve" smooth="yes"/>
      <point x="351" y="-142"/>
      <point x="400" y="-100"/>
      <point x="473" y="-100" type="curve" smooth="yes"/>
      <point x="520" y="-100"/>
      <point x="576" y="-132"/>
      <point x="608" y="-175" type="curve"/>
      <point x="644" y="-155" type="line"/>
      <point x="605" y="-90"/>
      <point x="543" y="-32"/>
      <point x="460" y="-32" type="curve" smooth="yes"/>
      <point x="368" y="-32"/>
      <point x="317" y="-81"/>
      <point x="317" y="-157" type="curve" smooth="yes"/>
      <point x="317" y="-284"/>
      <point x="449" y="-309"/>
      <point x="544" y="-250" type="curve"/>
      <point x="503" y="-187" type="line"/>
    </contour>
    <contour>
      <point x="416" y="570" type="move" name="top"/>
    </contour>
  </outline>
</glyph>
<glyph name="dadeva_uuvowelsigndeva" format="1">
  <advance width="584"/>
  <note>
    dDMatraUu
  </note>
  <outline>
    <contour>
      <point x="401" y="120" type="line"/>
      <point x="416" y="-19" type="line"/>
      <point x="493" y="-50" type="line"/>
      <point x="452" y="130" type="line"/>
    </contour>
    <contour>
      <point x="415" y="81"/>
      <point x="536" y="117"/>
      <point x="536" y="199" type="curve" smooth="yes"/>
      <point x="536" y="241"/>
      <point x="501" y="267"/>
      <point x="469" y="267" type="curve" smooth="yes"/>
      <point x="430" y="267"/>
      <point x="378" y="234"/>
      <point x="398" y="161" type="curve"/>
      <point x="369" y="145"/>
      <point x="340" y="136"/>
      <point x="306" y="136" type="curve" smooth="yes"/>
      <point x="236" y="136"/>
      <point x="181" y="187"/>
      <point x="181" y="251" type="curve" smooth="yes"/>
      <point x="181" y="318"/>
      <point x="229" y="373"/>
      <point x="310" y="373" type="curve" smooth="yes"/>
      <point x="460" y="373" type="line"/>
      <point x="460" y="506" type="line"/>
      <point x="604" y="506" type="line"/>
      <point x="576" y="570" type="line"/>
      <point x="15" y="570" type="line"/>
      <point x="43" y="506" type="line"/>
      <point x="381" y="506" type="line"/>
      <point x="381" y="445" type="line"/>
      <point x="311" y="445" type="line" smooth="yes"/>
      <point x="199" y="445"/>
      <point x="108" y="390"/>
      <point x="108" y="289" type="curve" smooth="yes"/>
      <point x="108" y="188"/>
      <point x="198" y="81"/>
      <point x="344" y="81" type="curve" smooth="yes"/>
    </contour>
    <contour>
      <point x="423" y="-205"/>
      <point x="359" y="-205"/>
      <point x="344" y="-163" type="curve" smooth="yes"/>
      <point x="328" y="-119"/>
      <point x="377" y="-77"/>
      <point x="450" y="-77" type="curve" smooth="yes"/>
      <point x="497" y="-77"/>
      <point x="553" y="-109"/>
      <point x="585" y="-152" type="curve"/>
      <point x="621" y="-132" type="line"/>
      <point x="582" y="-67"/>
      <point x="520" y="-9"/>
      <point x="437" y="-9" type="curve" smooth="yes"/>
      <point x="314" y="-9"/>
      <point x="272" y="-103"/>
      <point x="301" y="-178" type="curve" smooth="yes"/>
      <point x="330" y="-267"/>
      <point x="451" y="-283"/>
      <point x="542" y="-223" type="curve"/>
      <point x="497" y="-157" type="line"/>
    </contour>
    <contour>
      <point x="424" y="570" type="move" name="top"/>
    </contour>
  </outline>
</glyph>
<glyph name="uni0921094D092F" format="1">
  <advance width="1079"/>
  <note>
    dDdYa
  </note>
  <outline>
    <contour>
      <point x="423" y="445" type="line"/>
      <point x="449" y="381" type="line"/>
      <point x="611" y="381" type="line" smooth="yes"/>
      <point x="675" y="381"/>
      <point x="696" y="369"/>
      <point x="703" y="344" type="curve" smooth="yes"/>
      <point x="713" y="310"/>
      <point x="693" y="278"/>
      <point x="552" y="232" type="curve"/>
      <point x="612" y="56"/>
      <point x="766" y="15"/>
      <point x="872" y="99" type="curve"/>
      <point x="872" y="0" type="line"/>
      <point x="951" y="0" type="line"/>
      <point x="951" y="506" type="line"/>
      <point x="1064" y="506" type="line"/>
      <point x="1036" y="570" type="line"/>
      <point x="525" y="570" type="line"/>
      <point x="553" y="506" type="line"/>
      <point x="872" y="506" type="line"/>
      <point x="872" y="192" type="line"/>
      <point x="793" y="117"/>
      <point x="666" y="88"/>
      <point x="620" y="185" type="curve"/>
      <point x="759" y="236"/>
      <point x="781" y="306"/>
      <point x="754" y="369" type="curve" smooth="yes"/>
      <point x="734" y="415"/>
      <point x="691" y="445"/>
      <point x="619" y="445" type="curve" smooth="yes"/>
    </contour>
    <component base="ddadeva"/>
    <contour>
      <point x="914" y="570" type="move" name="top"/>
    </contour>
    <contour>
      <point x="914" y="0" type="move" name="bottom"/>
    </contour>
  </outline>
</glyph>
<glyph name="uni0922094D_nadeva" format="1">
  <advance width="594"/>
  <note>
    dDdhNa
  </note>
  <outline>
    <contour>
      <point x="15" y="570" type="line"/>
      <point x="43" y="506" type="line"/>
      <point x="579" y="506" type="line"/>
      <point x="551" y="570" type="line"/>
    </contour>
    <contour>
      <point x="355" y="549" type="line"/>
      <point x="355" y="461" type="line"/>
      <point x="296" y="461" type="line" smooth="yes"/>
      <point x="188" y="461"/>
      <point x="123" y="413"/>
      <point x="123" y="330" type="curve" smooth="yes"/>
      <point x="123" y="237"/>
      <point x="207" y="101"/>
      <point x="367" y="103" type="curve" smooth="yes"/>
      <point x="458" y="103"/>
      <point x="515" y="147"/>
      <point x="515" y="208" type="curve" smooth="yes"/>
      <point x="515" y="272"/>
      <point x="453" y="342"/>
      <point x="371" y="341" type="curve" smooth="yes"/>
      <point x="311" y="340"/>
      <point x="276" y="304"/>
      <point x="276" y="259" type="curve" smooth="yes"/>
      <point x="276" y="220"/>
      <point x="302" y="173"/>
      <point x="356" y="132" type="curve"/>
      <point x="399" y="133" type="line"/>
      <point x="359" y="166"/>
      <point x="342" y="202"/>
      <point x="342" y="234" type="curve" smooth="yes"/>
      <point x="342" y="269"/>
      <point x="361" y="296"/>
      <point x="403" y="295" type="curve" smooth="yes"/>
      <point x="443" y="294"/>
      <point x="464" y="269"/>
      <point x="464" y="237" type="curve" smooth="yes"/>
      <point x="464" y="188"/>
      <point x="407" y="158"/>
      <point x="345" y="158" type="curve" smooth="yes"/>
      <point x="273" y="158"/>
      <point x="193" y="193"/>
      <point x="193" y="286" type="curve" smooth="yes"/>
      <point x="193" y="344"/>
      <point x="225" y="397"/>
      <point x="304" y="397" type="curve" smooth="yes"/>
      <point x="434" y="397" type="line"/>
      <point x="434" y="549" type="line"/>
    </contour>
    <contour>
      <point x="324" y="146" type="line"/>
      <point x="324" y="-255" type="line"/>
      <point x="403" y="-255" type="line"/>
      <point x="403" y="153" type="line"/>
    </contour>
    <contour>
      <point x="357" y="-20" type="line"/>
      <point x="109" y="-20" type="line" smooth="yes"/>
      <point x="82" y="-20"/>
      <point x="72" y="-28"/>
      <point x="72" y="-45" type="curve" smooth="yes"/>
      <point x="72" y="-89"/>
      <point x="156" y="-157"/>
      <point x="188" y="-157" type="curve" smooth="yes"/>
      <point x="208" y="-157"/>
      <point x="214" y="-142"/>
      <point x="214" y="-112" type="curve" smooth="yes"/>
      <point x="214" y="-84" type="line"/>
      <point x="357" y="-84" type="line"/>
    </contour>
    <contour>
      <point x="391" y="570" type="move" name="top"/>
    </contour>
    <contour>
      <point x="364" y="-271" type="move" name="bottom"/>
    </contour>
  </outline>
</glyph>
<glyph name="evowelsigndeva_uni0930094D_anus" format="1">
  <advance width="275"/>
  <outline>
    <component base="evowelsigndeva_uni0930094D" xOffset="-247"/>
    <component base="anusvaradeva" xOffset="121" yOffset="-45"/>
    <contour>
      <point x="183" y="555" type="move" name="_top"/>
    </contour>
  </outline>
</glyph>
<glyph name="uni0917094D0928094D" format="1">
  <advance width="331"/>
  <note>
    dGN.half
  </note>
  <outline>
    <component base="nadeva.post2" xOffset="582"/>
    <component base="uni0917094D"/>
    <contour>
      <point x="222" y="0" type="move" name="nukta"/>
    </contour>
  </outline>
</glyph>
<glyph name="uni0917094D_nadeva" format="1">
  <advance width="634"/>
  <note>
    dGNa
  </note>
  <outline>
    <contour>
      <point x="15" y="570" type="line"/>
      <point x="43" y="506" type="line"/>
      <point x="413" y="506" type="line"/>
      <point x="413" y="0" type="line"/>
      <point x="492" y="0" type="line"/>
      <point x="492" y="506" type="line"/>
      <point x="619" y="506" type="line"/>
      <point x="591" y="570" type="line"/>
    </contour>
    <contour>
      <point x="164" y="547" type="line"/>
      <point x="179" y="485"/>
      <point x="185" y="422"/>
      <point x="174" y="360" type="curve"/>
      <point x="159" y="367"/>
      <point x="146" y="370"/>
      <point x="134" y="370" type="curve" smooth="yes"/>
      <point x="107" y="370"/>
      <point x="75" y="350"/>
      <point x="75" y="312" type="curve" smooth="yes"/>
      <point x="75" y="271"/>
      <point x="110" y="245"/>
      <point x="150" y="245" type="curve" smooth="yes"/>
      <point x="212" y="245"/>
      <point x="233" y="313"/>
      <point x="233" y="392" type="curve" smooth="yes"/>
      <point x="233" y="445"/>
      <point x="224" y="502"/>
      <point x="214" y="547" type="curve"/>
    </contour>
    <component base="nadeva.post2" xOffset="582" yOffset="53"/>
    <contour>
      <point x="453" y="570" type="move" name="top"/>
    </contour>
    <contour>
      <point x="453" y="0" type="move" name="bottom"/>
    </contour>
  </outline>
</glyph>
<glyph name="uni0917094D_radeva" format="1">
  <advance width="614"/>
  <note>
    dGRa
  </note>
  <outline>
    <contour>
      <point x="130" y="13" type="line"/>
      <point x="178" y="-48" type="line"/>
      <point x="452" y="180" type="line"/>
      <point x="423" y="224" type="line"/>
    </contour>
    <component base="gadeva"/>
  </outline>
</glyph>
<glyph name="uni0918094D_nadeva" format="1">
  <advance width="686"/>
  <note>
    dGhNa
  </note>
  <outline>
    <component base="uni0918094D"/>
    <component base="uni093E" xOffset="316"/>
    <component base="nadeva.post2" xOffset="620" yOffset="-39"/>
    <contour>
      <point x="504" y="570" type="move" name="top"/>
    </contour>
    <contour>
      <point x="504" y="0" type="move" name="bottom"/>
    </contour>
  </outline>
</glyph>
<glyph name="hadeva_uuvowelsigndeva" format="1">
  <advance width="599"/>
  <note>
    dHaMatraUu
  </note>
  <outline>
    <contour>
      <point x="234" y="237" type="line"/>
      <point x="209" y="261"/>
      <point x="196" y="288"/>
      <point x="196" y="311" type="curve" smooth="yes"/>
      <point x="196" y="340"/>
      <point x="218" y="362"/>
      <point x="262" y="362" type="curve" smooth="yes"/>
      <point x="460" y="362" type="line"/>
      <point x="460" y="506" type="line"/>
      <point x="584" y="506" type="line"/>
      <point x="556" y="570" type="line"/>
      <point x="15" y="570" type="line"/>
      <point x="43" y="506" type="line"/>
      <point x="381" y="506" type="line"/>
      <point x="381" y="426" type="line"/>
      <point x="233" y="426" type="line" smooth="yes"/>
      <point x="149" y="426"/>
      <point x="106" y="386"/>
      <point x="106" y="337" type="curve" smooth="yes"/>
      <point x="106" y="296"/>
      <point x="134" y="250"/>
      <point x="192" y="212" type="curve"/>
    </contour>
    <contour>
      <point x="237" y="-46"/>
      <point x="209" y="7"/>
      <point x="209" y="72" type="curve" smooth="yes"/>
      <point x="209" y="170"/>
      <point x="280" y="201"/>
      <point x="345" y="201" type="curve" smooth="yes"/>
      <point x="427" y="201"/>
      <point x="454" y="167"/>
      <point x="454" y="132" type="curve" smooth="yes"/>
      <point x="454" y="108"/>
      <point x="437" y="83"/>
      <point x="402" y="68" type="curve"/>
      <point x="446" y="19" type="line"/>
      <point x="490" y="47"/>
      <point x="509" y="84"/>
      <point x="509" y="123" type="curve" smooth="yes"/>
      <point x="509" y="228"/>
      <point x="412" y="282"/>
      <point x="315" y="282" type="curve" smooth="yes"/>
      <point x="219" y="282"/>
      <point x="123" y="229"/>
      <point x="123" y="118" type="curve" smooth="yes"/>
      <point x="123" y="-16"/>
      <point x="223" y="-96"/>
      <point x="343" y="-118" type="curve"/>
      <point x="351" y="-69" type="line"/>
    </contour>
    <contour>
      <point x="294" y="-250"/>
      <point x="238" y="-243"/>
      <point x="225" y="-202" type="curve" smooth="yes"/>
      <point x="211" y="-160"/>
      <point x="254" y="-125"/>
      <point x="318" y="-125" type="curve" smooth="yes"/>
      <point x="369" y="-125"/>
      <point x="440" y="-161"/>
      <point x="480" y="-243" type="curve"/>
      <point x="508" y="-220" type="line"/>
      <point x="458" y="-128"/>
      <point x="393" y="-63"/>
      <point x="306" y="-63" type="curve" smooth="yes"/>
      <point x="194" y="-63"/>
      <point x="155" y="-142"/>
      <point x="187" y="-217" type="curve" smooth="yes"/>
      <point x="221" y="-299"/>
      <point x="307" y="-312"/>
      <point x="380" y="-264" type="curve"/>
      <point x="350" y="-214" type="line"/>
    </contour>
    <contour>
      <point x="422" y="570" type="move" name="top"/>
    </contour>
  </outline>
</glyph>
<glyph name="uni093F.0" format="1">
  <advance width="370"/>
  <note>
    dMatraI.0
  </note>
  <outline>
    <contour>
      <point x="157" y="547" type="line"/>
      <point x="90" y="668"/>
      <point x="99" y="765"/>
      <point x="200" y="765" type="curve" smooth="yes"/>
      <point x="276" y="765"/>
      <point x="356" y="710"/>
      <point x="445" y="614" type="curve"/>
      <point x="469" y="640" type="line"/>
      <point x="364" y="767"/>
      <point x="286" y="841"/>
      <point x="169" y="841" type="curve" smooth="yes"/>
      <point x="-2" y="841"/>
      <point x="-3" y="683"/>
      <point x="110" y="538" type="curve"/>
    </contour>
    <component base="uni093E" xOffset="-56"/>
    <contour>
      <point x="472" y="643" type="move" name="imatra"/>
    </contour>
    <contour>
      <point x="459" y="628" type="move" name="top"/>
    </contour>
  </outline>
</glyph>
<glyph name="uni093F.02" format="1">
  <advance width="289"/>
  <note>
    dMatraI.2
  </note>
  <outline>
    <contour>
      <point x="211" y="567" type="line"/>
      <point x="152" y="677"/>
      <point x="149" y="770"/>
      <point x="265" y="770" type="curve" smooth="yes"/>
      <point x="355" y="770"/>
      <point x="498" y="716"/>
      <point x="648" y="610" type="curve"/>
      <point x="675" y="644" type="line"/>
      <point x="557" y="746"/>
      <point x="373" y="835"/>
      <point x="241" y="835" type="curve" smooth="yes"/>
      <point x="158" y="835"/>
      <point x="89" y="800"/>
      <point x="89" y="711" type="curve" smooth="yes"/>
      <point x="89" y="667"/>
      <point x="133" y="598"/>
      <point x="164" y="558" type="curve"/>
    </contour>
    <component base="uni093E"/>
    <contour>
      <point x="675" y="644" type="move" name="imatra"/>
    </contour>
    <contour>
      <point x="662" y="628" type="move" name="top"/>
    </contour>
  </outline>
</glyph>
<glyph name="uni093F.15" format="1">
  <advance width="230"/>
  <note>
    dMatraI.15
  </note>
  <outline>
    <contour>
      <point x="147" y="557" type="line"/>
      <point x="125" y="599"/>
      <point x="111" y="639"/>
      <point x="111" y="671" type="curve" smooth="yes"/>
      <point x="111" y="735"/>
      <point x="160" y="765"/>
      <point x="302" y="767" type="curve" smooth="yes"/>
      <point x="538" y="770"/>
      <point x="906" y="731"/>
      <point x="1220" y="609" type="curve"/>
      <point x="1244" y="648" type="line"/>
      <point x="945" y="764"/>
      <point x="555" y="835"/>
      <point x="262" y="835" type="curve" smooth="yes"/>
      <point x="112" y="835"/>
      <point x="30" y="787"/>
      <point x="30" y="705" type="curve" smooth="yes"/>
      <point x="30" y="659"/>
      <point x="60" y="600"/>
      <point x="101" y="547" type="curve"/>
    </contour>
    <component base="uni093E" xOffset="-59"/>
    <contour>
      <point x="1244" y="648" type="move" name="imatra"/>
    </contour>
    <contour>
      <point x="1230" y="628" type="move" name="top"/>
    </contour>
  </outline>
</glyph>
<glyph name="uni0940.02" format="1">
  <advance width="323"/>
  <note>
    dMatraIi.2
  </note>
  <outline>
    <contour>
      <point x="73" y="684"/>
      <point x="-75" y="835"/>
      <point x="-260" y="835" type="curve" smooth="yes"/>
      <point x="-381" y="835"/>
      <point x="-458" y="722"/>
      <point x="-340" y="617" type="curve"/>
      <point x="-318" y="641" type="line"/>
      <point x="-361" y="716"/>
      <point x="-327" y="765"/>
      <point x="-244" y="765" type="curve" smooth="yes"/>
      <point x="-130" y="765"/>
      <point x="9" y="677"/>
      <point x="125" y="538" type="curve"/>
      <point x="190" y="538" type="line"/>
    </contour>
    <component base="uni093E" xOffset="-47"/>
    <contour>
      <point x="-351" y="570" type="move" name="iimatra"/>
    </contour>
    <contour>
      <point x="128" y="570" type="move" name="top"/>
    </contour>
  </outline>
</glyph>
<glyph name="uni091C094D091C094D.alt" format="1">
  <advance width="574"/>
  <note>
    dJJ.half_alt
  </note>
  <outline>
    <contour>
      <point x="245" y="398" type="line"/>
      <point x="314" y="398"/>
      <point x="368" y="353"/>
      <point x="368" y="322" type="curve" smooth="yes"/>
      <point x="368" y="303"/>
      <point x="347" y="283"/>
      <point x="291" y="283" type="curve" smooth="yes"/>
      <point x="235" y="283"/>
      <point x="167" y="313"/>
      <point x="111" y="387" type="curve"/>
      <point x="91" y="368" type="line"/>
      <point x="158" y="270"/>
      <point x="226" y="226"/>
      <point x="315" y="226" type="curve" smooth="yes"/>
      <point x="478" y="226"/>
      <point x="489" y="377"/>
      <point x="325" y="410" type="curve"/>
    </contour>
    <contour>
      <point x="604" y="506" type="line"/>
      <point x="576" y="570" type="line"/>
      <point x="15" y="570" type="line"/>
      <point x="43" y="506" type="line"/>
    </contour>
    <contour>
      <point x="555" y="462" type="line"/>
      <point x="217" y="462" type="line"/>
      <point x="245" y="398" type="line"/>
      <point x="555" y="398" type="line"/>
    </contour>
    <contour>
      <point x="268" y="455" type="move"/>
    </contour>
    <contour>
      <point x="264" y="114" type="line"/>
      <point x="341" y="131"/>
      <point x="401" y="108"/>
      <point x="401" y="61" type="curve" smooth="yes"/>
      <point x="401" y="32"/>
      <point x="371" y="17"/>
      <point x="325" y="17" type="curve" smooth="yes"/>
      <point x="261" y="17"/>
      <point x="173" y="47"/>
      <point x="117" y="111" type="curve"/>
      <point x="91" y="85" type="line"/>
      <point x="157" y="4"/>
      <point x="261" y="-44"/>
      <point x="346" y="-44" type="curve" smooth="yes"/>
      <point x="420" y="-44"/>
      <point x="477" y="-11"/>
      <point x="477" y="57" type="curve" smooth="yes"/>
      <point x="477" y="102"/>
      <point x="429" y="145"/>
      <point x="339" y="143" type="curve"/>
    </contour>
    <contour>
      <point x="553" y="244" type="line"/>
      <point x="223" y="171" type="line"/>
      <point x="264" y="114" type="line"/>
      <point x="567" y="181" type="line"/>
    </contour>
  </outline>
</glyph>
<glyph name="uni091C094D_jadeva.alt" format="1">
  <advance width="767"/>
  <note>
    dJJa.alt
  </note>
  <outline>
    <contour>
      <point x="549" y="0" type="line"/>
      <point x="628" y="0" type="line"/>
      <point x="628" y="506" type="line"/>
      <point x="752" y="506" type="line"/>
      <point x="724" y="570" type="line"/>
      <point x="325" y="570" type="line"/>
      <point x="353" y="506" type="line"/>
      <point x="549" y="506" type="line"/>
    </contour>
    <component base="uni091C094D091C094D.alt"/>
    <contour>
      <point x="592" y="570" type="move" name="top"/>
    </contour>
    <contour>
      <point x="593" y="0" type="move" name="bottom"/>
    </contour>
  </outline>
</glyph>
<glyph name="jhadeva.loclNEP" format="1">
  <advance width="856"/>
  <outline>
    <contour>
      <point x="251" y="156"/>
      <point x="270" y="177"/>
      <point x="271" y="215" type="curve" smooth="yes"/>
      <point x="273" y="268" type="line"/>
      <point x="235" y="304" type="line"/>
      <point x="175" y="304" type="line" smooth="yes"/>
      <point x="142" y="304"/>
      <point x="125" y="287"/>
      <point x="125" y="260" type="curve" smooth="yes"/>
      <point x="125" y="214"/>
      <point x="193" y="156"/>
      <point x="223" y="156" type="curve" smooth="yes"/>
    </contour>
    <contour>
      <point x="652" y="410"/>
      <point x="594" y="381"/>
      <point x="524" y="310" type="curve"/>
      <point x="533" y="233" type="line"/>
      <point x="596" y="295"/>
      <point x="673" y="338"/>
      <point x="726" y="338" type="curve" smooth="yes"/>
      <point x="769" y="338"/>
      <point x="787" y="316"/>
      <point x="787" y="279" type="curve" smooth="yes"/>
      <point x="787" y="221"/>
      <point x="744" y="133"/>
      <point x="653" y="98" type="curve"/>
      <point x="701" y="26" type="line"/>
      <point x="795" y="77"/>
      <point x="834" y="159"/>
      <point x="834" y="242" type="curve" smooth="yes"/>
      <point x="834" y="330"/>
      <point x="788" y="410"/>
      <point x="704" y="410" type="curve" smooth="yes"/>
    </contour>
    <contour>
      <point x="813" y="570" type="line"/>
      <point x="323" y="570" type="line"/>
      <point x="351" y="506" type="line"/>
      <point x="457" y="506" type="line"/>
      <point x="457" y="304" type="line"/>
      <point x="276" y="304" type="line"/>
      <point x="279" y="356" type="line" smooth="yes"/>
      <point x="284" y="502"/>
      <point x="226" y="592"/>
      <point x="124" y="592" type="curve" smooth="yes"/>
      <point x="73" y="592"/>
      <point x="40" y="560"/>
      <point x="40" y="511" type="curve" smooth="yes"/>
      <point x="40" y="438.189"/>
      <point x="114.752" y="385.765"/>
      <point x="196.143" y="372.517" type="curve"/>
      <point x="193.88" y="332.117"/>
      <point x="190.119" y="287.063"/>
      <point x="187" y="240" type="curve"/>
      <point x="457" y="240" type="line"/>
      <point x="457" y="0" type="line"/>
      <point x="536" y="0" type="line"/>
      <point x="536" y="506" type="line"/>
      <point x="841" y="506" type="line"/>
    </contour>
    <contour>
      <point x="113" y="531"/>
      <point x="124" y="547"/>
      <point x="150" y="547" type="curve" smooth="yes"/>
      <point x="190.507" y="547"/>
      <point x="199.579" y="495.462"/>
      <point x="197.99" y="418.02" type="curve"/>
      <point x="144.068" y="433.077"/>
      <point x="113" y="466.985"/>
      <point x="113" y="504" type="curve" smooth="yes"/>
    </contour>
    <contour>
      <point x="202" y="0" type="move" name="nukta"/>
    </contour>
    <contour>
      <point x="495" y="0" type="move" name="bottom"/>
    </contour>
    <contour>
      <point x="495" y="570" type="move" name="top"/>
    </contour>
  </outline>
</glyph>
<glyph name="uni0915094D" format="1">
  <advance width="586"/>
  <outline>
    <contour>
      <point x="15" y="570" type="line"/>
      <point x="43" y="506" type="line"/>
      <point x="373" y="506" type="line"/>
      <point x="373" y="0" type="line"/>
      <point x="452" y="0" type="line"/>
      <point x="452" y="506" type="line"/>
      <point x="623" y="506" type="line"/>
      <point x="595" y="570" type="line"/>
    </contour>
    <contour>
      <point x="102" y="421"/>
      <point x="58" y="372"/>
      <point x="58" y="275" type="curve" smooth="yes"/>
      <point x="58" y="145"/>
      <point x="138" y="75"/>
      <point x="229" y="75" type="curve" smooth="yes"/>
      <point x="285" y="75"/>
      <point x="339" y="102"/>
      <point x="380" y="143" type="curve"/>
      <point x="380" y="226" type="line"/>
      <point x="328" y="175"/>
      <point x="252" y="139"/>
      <point x="192" y="139" type="curve" smooth="yes"/>
      <point x="141" y="139"/>
      <point x="119" y="175"/>
      <point x="119" y="222" type="curve" smooth="yes"/>
      <point x="119" y="283"/>
      <point x="139" y="338"/>
      <point x="230" y="338" type="curve" smooth="yes"/>
      <point x="269" y="338"/>
      <point x="325" y="317"/>
      <point x="388" y="259" type="curve"/>
      <point x="390" y="317" type="line"/>
      <point x="325" y="393"/>
      <point x="251" y="421"/>
      <point x="186" y="421" type="curve" smooth="yes"/>
    </contour>
    <contour>
      <point x="673" y="376" type="line"/>
      <point x="659" y="396"/>
      <point x="641" y="407"/>
      <point x="612" y="407" type="curve" smooth="yes"/>
      <point x="567" y="407"/>
      <point x="507" y="376"/>
      <point x="441" y="310" type="curve"/>
      <point x="450" y="233" type="line"/>
      <point x="509" y="292"/>
      <point x="582" y="338"/>
      <point x="635" y="338" type="curve" smooth="yes"/>
      <point x="656" y="338"/>
      <point x="674" y="330"/>
      <point x="686" y="314" type="curve"/>
    </contour>
    <contour>
      <point x="103" y="0" type="move" name="nukta"/>
    </contour>
  </outline>
</glyph>
<glyph name="uni0915094D_kadeva" format="1">
  <advance width="778"/>
  <note>
    dKKa
  </note>
  <outline>
    <contour>
      <point x="15" y="570" type="line"/>
      <point x="43" y="506" type="line"/>
      <point x="373" y="506" type="line"/>
      <point x="373" y="-130" type="line"/>
      <point x="452" y="-130" type="line"/>
      <point x="452" y="506" type="line"/>
      <point x="763" y="506" type="line"/>
      <point x="735" y="570" type="line"/>
    </contour>
    <contour>
      <point x="102" y="471"/>
      <point x="58" y="428"/>
      <point x="58" y="345" type="curve" smooth="yes"/>
      <point x="58" y="215"/>
      <point x="138" y="145"/>
      <point x="229" y="145" type="curve" smooth="yes"/>
      <point x="285" y="145"/>
      <point x="339" y="172"/>
      <point x="380" y="213" type="curve"/>
      <point x="380" y="296" type="line"/>
      <point x="328" y="245"/>
      <point x="252" y="209"/>
      <point x="192" y="209" type="curve" smooth="yes"/>
      <point x="141" y="209"/>
      <point x="119" y="245"/>
      <point x="119" y="292" type="curve" smooth="yes"/>
      <point x="119" y="343"/>
      <point x="139" y="388"/>
      <point x="230" y="388" type="curve" smooth="yes"/>
      <point x="269" y="388"/>
      <point x="325" y="367"/>
      <point x="388" y="309" type="curve"/>
      <point x="390" y="367" type="line"/>
      <point x="325" y="443"/>
      <point x="251" y="471"/>
      <point x="186" y="471" type="curve" smooth="yes"/>
    </contour>
    <contour>
      <point x="696" y="181" type="line"/>
      <point x="731" y="214"/>
      <point x="751" y="256"/>
      <point x="751" y="302" type="curve" smooth="yes"/>
      <point x="751" y="384"/>
      <point x="705" y="460"/>
      <point x="621" y="460" type="curve" smooth="yes"/>
      <point x="569" y="460"/>
      <point x="511" y="431"/>
      <point x="441" y="360" type="curve"/>
      <point x="450" y="283" type="line"/>
      <point x="513" y="345"/>
      <point x="590" y="388"/>
      <point x="643" y="388" type="curve" smooth="yes"/>
      <point x="686" y="388"/>
      <point x="704" y="370"/>
      <point x="704" y="339" type="curve" smooth="yes"/>
      <point x="704" y="304"/>
      <point x="696" y="278"/>
      <point x="644" y="244" type="curve"/>
    </contour>
    <contour>
      <point x="131" y="220" type="line"/>
      <point x="96" y="200"/>
      <point x="58" y="168"/>
      <point x="58" y="115" type="curve" smooth="yes"/>
      <point x="58" y="25"/>
      <point x="128" y="-55"/>
      <point x="229" y="-55" type="curve" smooth="yes"/>
      <point x="285" y="-55"/>
      <point x="339" y="-28"/>
      <point x="380" y="13" type="curve"/>
      <point x="380" y="96" type="line"/>
      <point x="328" y="45"/>
      <point x="252" y="9"/>
      <point x="192" y="9" type="curve" smooth="yes"/>
      <point x="149" y="9"/>
      <point x="126" y="42"/>
      <point x="126" y="77" type="curve" smooth="yes"/>
      <point x="126" y="110"/>
      <point x="151" y="144"/>
      <point x="203" y="154" type="curve"/>
    </contour>
    <contour>
      <point x="569" y="260"/>
      <point x="511" y="234"/>
      <point x="441" y="170" type="curve"/>
      <point x="450" y="93" type="line"/>
      <point x="510" y="149"/>
      <point x="583" y="190"/>
      <point x="633" y="190" type="curve" smooth="yes"/>
      <point x="683" y="190"/>
      <point x="704" y="170"/>
      <point x="704" y="139" type="curve" smooth="yes"/>
      <point x="704" y="86"/>
      <point x="651" y="53"/>
      <point x="540" y="18" type="curve"/>
      <point x="588" y="-54" type="line"/>
      <point x="702" y="-5"/>
      <point x="751" y="30"/>
      <point x="751" y="102" type="curve" smooth="yes"/>
      <point x="751" y="183"/>
      <point x="705" y="260"/>
      <point x="621" y="260" type="curve" smooth="yes"/>
    </contour>
    <contour>
      <point x="409" y="570" type="move" name="top"/>
    </contour>
    <contour>
      <point x="409" y="-59" type="move" name="bottom"/>
    </contour>
  </outline>
</glyph>
<glyph name="uni0915094D_radeva.loclNEP" format="1">
  <advance width="744"/>
  <outline>
    <contour>
      <point x="540" y="410"/>
      <point x="482" y="381"/>
      <point x="412" y="310" type="curve"/>
      <point x="421" y="233" type="line"/>
      <point x="484" y="295"/>
      <point x="561" y="338"/>
      <point x="614" y="338" type="curve" smooth="yes"/>
      <point x="657" y="338"/>
      <point x="675" y="316"/>
      <point x="675" y="279" type="curve" smooth="yes"/>
      <point x="675" y="221"/>
      <point x="632" y="133"/>
      <point x="541" y="98" type="curve"/>
      <point x="589" y="26" type="line"/>
      <point x="683" y="77"/>
      <point x="722" y="159"/>
      <point x="722" y="242" type="curve" smooth="yes"/>
      <point x="722" y="330"/>
      <point x="676" y="410"/>
      <point x="592" y="410" type="curve" smooth="yes"/>
    </contour>
    <contour>
      <point x="701" y="570" type="line"/>
      <point x="15" y="570" type="line"/>
      <point x="43" y="506" type="line"/>
      <point x="345" y="506" type="line"/>
      <point x="345" y="0" type="line"/>
      <point x="424" y="0" type="line"/>
      <point x="424" y="506" type="line"/>
      <point x="729" y="506" type="line"/>
    </contour>
    <contour>
      <point x="394" y="304" type="line"/>
      <point x="142" y="104" type="line"/>
      <point x="200" y="43" type="line"/>
      <point x="394" y="225" type="line"/>
    </contour>
    <contour>
      <point x="275" y="387"/>
      <point x="223" y="430"/>
      <point x="143" y="430" type="curve" smooth="yes"/>
      <point x="103" y="430"/>
      <point x="65" y="418"/>
      <point x="29" y="396" type="curve"/>
      <point x="62" y="325" type="line"/>
      <point x="92" y="339"/>
      <point x="127" y="348"/>
      <point x="168" y="348" type="curve" smooth="yes"/>
      <point x="235" y="348"/>
      <point x="276" y="325"/>
      <point x="371" y="266" type="curve"/>
      <point x="395" y="300" type="line"/>
    </contour>
    <contour>
      <point x="384" y="570" type="move" name="top"/>
    </contour>
    <contour>
      <point x="384" y="0" type="move" name="bottom"/>
    </contour>
  </outline>
</glyph>
<glyph name="uni0916094D0932.loclMAR" format="1">
  <advance width="817"/>
  <note>
    dKhLa.MAR
  </note>
  <outline>
    <contour>
      <point x="421" y="-58"/>
      <point x="365" y="-18"/>
      <point x="289" y="-18" type="curve" smooth="yes"/>
      <point x="191" y="-18"/>
      <point x="160" y="-87"/>
      <point x="160" y="-145" type="curve" smooth="yes"/>
      <point x="160" y="-242"/>
      <point x="249" y="-341"/>
      <point x="356" y="-394" type="curve"/>
      <point x="377" y="-356" type="line"/>
      <point x="299" y="-302"/>
      <point x="245" y="-230"/>
      <point x="245" y="-154" type="curve" smooth="yes"/>
      <point x="245" y="-98"/>
      <point x="274" y="-78"/>
      <point x="320" y="-78" type="curve" smooth="yes"/>
      <point x="363" y="-78"/>
      <point x="407" y="-97"/>
      <point x="450" y="-129" type="curve"/>
      <point x="476" y="-105" type="line"/>
    </contour>
    <contour>
      <point x="796" y="-211"/>
      <point x="733" y="-38"/>
      <point x="598" y="-38" type="curve" smooth="yes"/>
      <point x="514" y="-38"/>
      <point x="440" y="-78"/>
      <point x="407" y="-180" type="curve"/>
      <point x="477" y="-209" type="line"/>
      <point x="511" y="-115"/>
      <point x="567" y="-82"/>
      <point x="618" y="-82" type="curve" smooth="yes"/>
      <point x="690" y="-82"/>
      <point x="700" y="-188"/>
      <point x="569" y="-290" type="curve"/>
      <point x="621" y="-353" type="line"/>
    </contour>
    <contour>
      <point x="163" y="513" type="line"/>
      <point x="202" y="420"/>
      <point x="211" y="360"/>
      <point x="190" y="295" type="curve"/>
      <point x="176" y="314"/>
      <point x="148" y="328"/>
      <point x="121" y="328" type="curve" smooth="yes"/>
      <point x="85" y="328"/>
      <point x="55" y="309"/>
      <point x="55" y="259" type="curve" smooth="yes"/>
      <point x="55" y="154"/>
      <point x="155" y="15"/>
      <point x="336" y="15" type="curve" smooth="yes"/>
      <point x="387" y="15"/>
      <point x="441" y="26"/>
      <point x="506" y="51" type="curve"/>
      <point x="480" y="126" type="line"/>
      <point x="371" y="73"/>
      <point x="199" y="45"/>
      <point x="126" y="181" type="curve"/>
      <point x="210" y="185"/>
      <point x="257" y="268"/>
      <point x="257" y="361" type="curve" smooth="yes"/>
      <point x="257" y="405"/>
      <point x="246" y="456"/>
      <point x="222" y="513" type="curve"/>
    </contour>
    <contour>
      <point x="382" y="458"/>
      <point x="318" y="409"/>
      <point x="318" y="332" type="curve" smooth="yes"/>
      <point x="318" y="245"/>
      <point x="400" y="161"/>
      <point x="500" y="161" type="curve" smooth="yes"/>
      <point x="538" y="161"/>
      <point x="573" y="178"/>
      <point x="599" y="202" type="curve"/>
      <point x="599" y="305" type="line"/>
      <point x="561" y="247"/>
      <point x="502" y="221"/>
      <point x="452" y="221" type="curve" smooth="yes"/>
      <point x="392" y="221"/>
      <point x="385" y="258"/>
      <point x="385" y="288" type="curve" smooth="yes"/>
      <point x="385" y="347"/>
      <point x="413" y="388"/>
      <point x="473" y="388" type="curve" smooth="yes"/>
      <point x="510" y="388"/>
      <point x="561" y="373"/>
      <point x="600" y="347" type="curve"/>
      <point x="600" y="397" type="line"/>
      <point x="570" y="429"/>
      <point x="513" y="458"/>
      <point x="453" y="458" type="curve" smooth="yes"/>
    </contour>
    <contour>
      <point x="15" y="570" type="line"/>
      <point x="43" y="506" type="line"/>
      <point x="593" y="506" type="line"/>
      <point x="593" y="-60" type="line"/>
      <point x="672" y="-79" type="line"/>
      <point x="672" y="506" type="line"/>
      <point x="802" y="506" type="line"/>
      <point x="774" y="570" type="line"/>
    </contour>
    <contour>
      <point x="630" y="570" type="move" name="top"/>
    </contour>
    <contour>
      <point x="560" y="-308" type="move" name="bottom"/>
    </contour>
  </outline>
</glyph>
<glyph name="uni0932094D" format="1">
  <advance width="538"/>
  <outline>
    <contour>
      <point x="15" y="570" type="line"/>
      <point x="43" y="506" type="line"/>
      <point x="562" y="506" type="line"/>
      <point x="534" y="570" type="line"/>
    </contour>
    <contour>
      <point x="388" y="308"/>
      <point x="434" y="359"/>
      <point x="488" y="359" type="curve" smooth="yes"/>
      <point x="515" y="359"/>
      <point x="544" y="347"/>
      <point x="573" y="323" type="curve"/>
      <point x="588" y="349" type="line"/>
      <point x="550" y="396"/>
      <point x="507" y="419"/>
      <point x="459" y="419" type="curve" smooth="yes"/>
      <point x="371" y="419"/>
      <point x="323" y="343"/>
      <point x="288" y="227" type="curve"/>
      <point x="358" y="198" type="line"/>
    </contour>
    <contour>
      <point x="321" y="384"/>
      <point x="269" y="419"/>
      <point x="199" y="419" type="curve" smooth="yes"/>
      <point x="102" y="419"/>
      <point x="71" y="350"/>
      <point x="71" y="291" type="curve" smooth="yes"/>
      <point x="71" y="175"/>
      <point x="190" y="46"/>
      <point x="287" y="-7" type="curve"/>
      <point x="308" y="31" type="line"/>
      <point x="234" y="90"/>
      <point x="156" y="177"/>
      <point x="156" y="279" type="curve" smooth="yes"/>
      <point x="156" y="329"/>
      <point x="175" y="359"/>
      <point x="230" y="359" type="curve" smooth="yes"/>
      <point x="269" y="359"/>
      <point x="307" y="344"/>
      <point x="345" y="318" type="curve"/>
      <point x="371" y="342" type="line"/>
    </contour>
  </outline>
</glyph>
<glyph name="uni0932094D_radeva" format="1">
  <advance width="777"/>
  <note>
    dLRa
  </note>
  <outline>
    <contour>
      <point x="353" y="61" type="line"/>
      <point x="423" y="10" type="line"/>
      <point x="598" y="242" type="line"/>
      <point x="554" y="275" type="line"/>
    </contour>
    <component base="uni0932"/>
  </outline>
</glyph>
<glyph name="uni092E094D" format="1">
  <advance width="482"/>
  <outline>
    <contour>
      <point x="362" y="506" type="line"/>
      <point x="334" y="570" type="line"/>
      <point x="15" y="570" type="line"/>
      <point x="43" y="506" type="line"/>
      <point x="129" y="506" type="line"/>
      <point x="129" y="200" type="line"/>
      <point x="442" y="200" type="line"/>
      <point x="414" y="264" type="line"/>
      <point x="208" y="264" type="line"/>
      <point x="208" y="506" type="line"/>
    </contour>
    <component base="deva_knot" xOffset="15" yOffset="-59"/>
  </outline>
</glyph>
<glyph name="uni0928094D" format="1">
  <advance width="389"/>
  <outline>
    <contour>
      <point x="379" y="506" type="line"/>
      <point x="351" y="570" type="line"/>
      <point x="15" y="570" type="line"/>
      <point x="43" y="506" type="line"/>
    </contour>
    <contour>
      <point x="401" y="346" type="line"/>
      <point x="146" y="346" type="line"/>
      <point x="147" y="282" type="line"/>
      <point x="429" y="282" type="line"/>
    </contour>
    <component base="deva_knot" xOffset="36" yOffset="23"/>
    <contour>
      <point x="183" y="0" type="move" name="nukta"/>
    </contour>
  </outline>
</glyph>
<glyph name="uni0928094D_bhadeva" format="1">
  <advance width="918"/>
  <note>
    dNBha
  </note>
  <outline>
    <contour>
      <point x="269" y="506" type="line"/>
      <point x="241" y="570" type="line"/>
      <point x="15" y="570" type="line"/>
      <point x="43" y="506" type="line"/>
    </contour>
    <contour>
      <point x="509" y="295" type="line"/>
      <point x="481" y="359" type="line"/>
      <point x="165" y="359" type="line"/>
      <point x="193" y="295" type="line"/>
    </contour>
    <contour>
      <point x="484" y="423" type="line"/>
      <point x="416" y="434"/>
      <point x="376" y="465"/>
      <point x="376" y="507" type="curve" smooth="yes"/>
      <point x="376" y="534"/>
      <point x="390" y="547"/>
      <point x="413" y="547" type="curve" smooth="yes"/>
      <point x="480" y="547"/>
      <point x="461" y="396"/>
      <point x="450" y="200" type="curve"/>
      <point x="720" y="200" type="line"/>
      <point x="720" y="0" type="line"/>
      <point x="799" y="0" type="line"/>
      <point x="799" y="506" type="line"/>
      <point x="903" y="506" type="line"/>
      <point x="875" y="570" type="line"/>
      <point x="586" y="570" type="line"/>
      <point x="614" y="506" type="line"/>
      <point x="720" y="506" type="line"/>
      <point x="720" y="264" type="line"/>
      <point x="539" y="264" type="line"/>
      <point x="542" y="356" type="line" smooth="yes"/>
      <point x="547" y="502"/>
      <point x="499" y="592"/>
      <point x="391" y="592" type="curve" smooth="yes"/>
      <point x="340" y="592"/>
      <point x="303" y="560"/>
      <point x="303" y="511" type="curve" smooth="yes"/>
      <point x="303" y="438"/>
      <point x="391" y="387"/>
      <point x="480" y="380" type="curve"/>
    </contour>
    <component base="deva_knot" xOffset="56" yOffset="36"/>
    <component base="deva_knot" xOffset="346" yOffset="-59"/>
    <contour>
      <point x="465" y="0" type="move" name="nukta"/>
    </contour>
    <contour>
      <point x="758" y="0" type="move" name="bottom"/>
    </contour>
    <contour>
      <point x="758" y="570" type="move" name="top"/>
    </contour>
  </outline>
</glyph>
<glyph name="uni0919094D0917094D_radeva" format="1">
  <advance width="684"/>
  <note>
    dNgGRa
  </note>
  <outline>
    <contour>
      <point x="199" y="-230" type="line"/>
      <point x="241" y="-280" type="line"/>
      <point x="470" y="-100" type="line"/>
      <point x="445" y="-59" type="line"/>
    </contour>
    <component base="uni0919094D_gadeva"/>
    <contour>
      <point x="418" y="570" type="move" name="top"/>
    </contour>
    <contour>
      <point x="466" y="-277" type="move" name="bottom"/>
    </contour>
  </outline>
</glyph>
<glyph name="uni0919094D0918094D_radeva" format="1">
  <advance width="684"/>
  <note>
    dNgGhRa
  </note>
  <outline>
    <contour>
      <point x="166" y="-283" type="line"/>
      <point x="208" y="-333" type="line"/>
      <point x="440" y="-162" type="line"/>
      <point x="415" y="-121" type="line"/>
    </contour>
    <component base="uni0919094D_ghadeva"/>
    <contour>
      <point x="422" y="570" type="move" name="top"/>
    </contour>
    <contour>
      <point x="467" y="-254" type="move" name="bottom"/>
    </contour>
  </outline>
</glyph>
<glyph name="uni0919094D_kadeva" format="1">
  <advance width="684"/>
  <note>
    dNgKa
  </note>
  <outline>
    <contour>
      <point x="597" y="466"/>
      <point x="571" y="465"/>
      <point x="546" y="440" type="curve" smooth="yes"/>
      <point x="520" y="414"/>
      <point x="520" y="389"/>
      <point x="549" y="360" type="curve" smooth="yes"/>
      <point x="578" y="331"/>
      <point x="603" y="331"/>
      <point x="629" y="357" type="curve" smooth="yes"/>
      <point x="654" y="382"/>
      <point x="657" y="406"/>
      <point x="626" y="437" type="curve" smooth="yes"/>
    </contour>
    <contour>
      <point x="314" y="146" type="line"/>
      <point x="314" y="-255" type="line"/>
      <point x="383" y="-255" type="line"/>
      <point x="383" y="146" type="line"/>
    </contour>
    <contour>
      <point x="206" y="82"/>
      <point x="150" y="82" type="curve" smooth="yes"/>
      <point x="91" y="82"/>
      <point x="45" y="48"/>
      <point x="45" y="-30" type="curve" smooth="yes"/>
      <point x="45" y="-133"/>
      <point x="118" y="-198"/>
      <point x="201" y="-198" type="curve" smooth="yes"/>
      <point x="252" y="-198"/>
      <point x="281" y="-174"/>
      <point x="318" y="-139" type="curve"/>
      <point x="318" y="-62" type="line"/>
      <point x="271" y="-107"/>
      <point x="222" y="-138"/>
      <point x="167" y="-138" type="curve" smooth="yes"/>
      <point x="121" y="-138"/>
      <point x="99" y="-105"/>
      <point x="99" y="-69" type="curve" smooth="yes"/>
      <point x="99" y="-29"/>
      <point x="128" y="14"/>
      <point x="183" y="14" type="curve" smooth="yes"/>
      <point x="230" y="14"/>
      <point x="277" y="-8"/>
      <point x="326" y="-51" type="curve"/>
      <point x="327" y="-1" type="line"/>
      <point x="274" y="52"/>
    </contour>
    <contour>
      <point x="586" y="-192" type="line"/>
      <point x="660" y="-108"/>
      <point x="676" y="-46"/>
      <point x="634" y="26" type="curve" smooth="yes"/>
      <point x="614" y="58"/>
      <point x="581" y="80"/>
      <point x="537" y="80" type="curve" smooth="yes"/>
      <point x="490" y="80"/>
      <point x="437" y="55"/>
      <point x="374" y="-7" type="curve"/>
      <point x="382" y="-74" type="line"/>
      <point x="495" y="33"/>
      <point x="571" y="48"/>
      <point x="601" y="-4" type="curve" smooth="yes"/>
      <point x="618" y="-32"/>
      <point x="602" y="-85"/>
      <point x="528" y="-138" type="curve"/>
    </contour>
    <contour>
      <point x="70" y="276" type="line"/>
      <point x="125" y="185"/>
      <point x="208" y="107"/>
      <point x="345" y="107" type="curve"/>
      <point x="467" y="107"/>
      <point x="504" y="171"/>
      <point x="503" y="233" type="curve" smooth="yes"/>
      <point x="502" y="304"/>
      <point x="426" y="353"/>
      <point x="363" y="353" type="curve" smooth="yes"/>
      <point x="298" y="353"/>
      <point x="275" y="321"/>
      <point x="228" y="321" type="curve" smooth="yes"/>
      <point x="207" y="321"/>
      <point x="194" y="333"/>
      <point x="194" y="356" type="curve" smooth="yes"/>
      <point x="194" y="390"/>
      <point x="222" y="412"/>
      <point x="272" y="412" type="curve" smooth="yes"/>
      <point x="460" y="412" type="line"/>
      <point x="395" y="473" type="line"/>
      <point x="253" y="473" type="line" smooth="yes"/>
      <point x="172" y="473"/>
      <point x="133" y="434"/>
      <point x="135" y="383" type="curve" smooth="yes"/>
      <point x="138" y="310"/>
      <point x="230" y="266"/>
      <point x="283" y="266" type="curve" smooth="yes"/>
      <point x="329" y="266"/>
      <point x="368" y="295"/>
      <point x="409" y="294" type="curve" smooth="yes"/>
      <point x="439" y="294"/>
      <point x="449" y="280"/>
      <point x="449" y="254" type="curve" smooth="yes"/>
      <point x="449" y="224"/>
      <point x="410" y="178"/>
      <point x="318" y="178" type="curve" smooth="yes"/>
      <point x="246" y="178"/>
      <point x="168" y="200"/>
      <point x="100" y="297" type="curve"/>
    </contour>
    <contour>
      <point x="641" y="570" type="line"/>
      <point x="15" y="570" type="line"/>
      <point x="43" y="506" type="line"/>
      <point x="381" y="506" type="line"/>
      <point x="381" y="412" type="line"/>
      <point x="460" y="412" type="line"/>
      <point x="460" y="506" type="line"/>
      <point x="669" y="506" type="line"/>
    </contour>
    <contour>
      <point x="422" y="570" type="move" name="top"/>
    </contour>
    <contour>
      <point x="347" y="-255" type="move" name="bottom"/>
    </contour>
  </outline>
</glyph>
<glyph name="uni0919094D_khadeva" format="1">
  <advance width="716"/>
  <note>
    dNgKha
  </note>
  <outline>
    <contour>
      <point x="629" y="466"/>
      <point x="603" y="465"/>
      <point x="578" y="440" type="curve" smooth="yes"/>
      <point x="552" y="414"/>
      <point x="552" y="389"/>
      <point x="581" y="360" type="curve" smooth="yes"/>
      <point x="610" y="331"/>
      <point x="635" y="331"/>
      <point x="661" y="357" type="curve" smooth="yes"/>
      <point x="686" y="382"/>
      <point x="689" y="406"/>
      <point x="658" y="437" type="curve" smooth="yes"/>
    </contour>
    <contour>
      <point x="466" y="196" type="line"/>
      <point x="466" y="-255" type="line"/>
      <point x="535" y="-255" type="line"/>
      <point x="535" y="233" type="line"/>
    </contour>
    <contour>
      <point x="102" y="276" type="line"/>
      <point x="157" y="185"/>
      <point x="240" y="107"/>
      <point x="377" y="107" type="curve"/>
      <point x="499" y="107"/>
      <point x="536" y="171"/>
      <point x="535" y="233" type="curve" smooth="yes"/>
      <point x="534" y="304"/>
      <point x="458" y="353"/>
      <point x="395" y="353" type="curve" smooth="yes"/>
      <point x="330" y="353"/>
      <point x="307" y="321"/>
      <point x="260" y="321" type="curve" smooth="yes"/>
      <point x="239" y="321"/>
      <point x="226" y="333"/>
      <point x="226" y="356" type="curve" smooth="yes"/>
      <point x="226" y="390"/>
      <point x="254" y="412"/>
      <point x="304" y="412" type="curve" smooth="yes"/>
      <point x="492" y="412" type="line"/>
      <point x="427" y="473" type="line"/>
      <point x="285" y="473" type="line" smooth="yes"/>
      <point x="204" y="473"/>
      <point x="165" y="434"/>
      <point x="167" y="383" type="curve" smooth="yes"/>
      <point x="170" y="310"/>
      <point x="262" y="266"/>
      <point x="315" y="266" type="curve" smooth="yes"/>
      <point x="361" y="266"/>
      <point x="400" y="295"/>
      <point x="441" y="294" type="curve" smooth="yes"/>
      <point x="471" y="294"/>
      <point x="481" y="280"/>
      <point x="481" y="254" type="curve" smooth="yes"/>
      <point x="481" y="224"/>
      <point x="442" y="178"/>
      <point x="350" y="178" type="curve" smooth="yes"/>
      <point x="278" y="178"/>
      <point x="200" y="200"/>
      <point x="132" y="297" type="curve"/>
    </contour>
    <contour>
      <point x="673" y="570" type="line"/>
      <point x="47" y="570" type="line"/>
      <point x="75" y="506" type="line"/>
      <point x="413" y="506" type="line"/>
      <point x="413" y="412" type="line"/>
      <point x="492" y="412" type="line"/>
      <point x="492" y="506" type="line"/>
      <point x="701" y="506" type="line"/>
    </contour>
    <contour>
      <point x="116" y="257" type="line"/>
      <point x="180" y="140"/>
      <point x="168" y="8"/>
      <point x="129" y="-40" type="curve"/>
      <point x="128" y="-8"/>
      <point x="111" y="13"/>
      <point x="78" y="13" type="curve" smooth="yes"/>
      <point x="43" y="13"/>
      <point x="25" y="-7"/>
      <point x="25" y="-39" type="curve" smooth="yes"/>
      <point x="25" y="-146"/>
      <point x="182" y="-358"/>
      <point x="485" y="-221" type="curve"/>
      <point x="472" y="-171" type="line"/>
      <point x="292" y="-251"/>
      <point x="149" y="-232"/>
      <point x="91" y="-75" type="curve"/>
      <point x="74" y="-110" type="line"/>
      <point x="176" y="-149"/>
      <point x="246" y="22"/>
      <point x="196" y="191" type="curve"/>
    </contour>
    <contour>
      <point x="301" y="83"/>
      <point x="237" y="66"/>
      <point x="237" y="-12" type="curve" smooth="yes"/>
      <point x="237" y="-78"/>
      <point x="305" y="-152"/>
      <point x="388" y="-152" type="curve" smooth="yes"/>
      <point x="429" y="-152"/>
      <point x="458" y="-135"/>
      <point x="480" y="-118" type="curve"/>
      <point x="480" y="-32" type="line"/>
      <point x="448" y="-76"/>
      <point x="400" y="-96"/>
      <point x="358" y="-96" type="curve" smooth="yes"/>
      <point x="325" y="-96"/>
      <point x="303" y="-76"/>
      <point x="303" y="-46" type="curve" smooth="yes"/>
      <point x="303" y="41"/>
      <point x="410" y="31"/>
      <point x="481" y="-10" type="curve"/>
      <point x="481" y="29" type="line"/>
      <point x="456" y="57"/>
      <point x="409" y="83"/>
      <point x="349" y="83" type="curve" smooth="yes"/>
    </contour>
    <contour>
      <point x="451" y="570" type="move" name="top"/>
    </contour>
    <contour>
      <point x="501" y="-279" type="move" name="bottom"/>
    </contour>
  </outline>
</glyph>
<glyph name="uni0923094D" format="1">
  <advance width="481"/>
  <outline>
    <contour>
      <point x="334" y="526" type="line"/>
      <point x="334" y="272" type="line" smooth="yes"/>
      <point x="334" y="188"/>
      <point x="309" y="170"/>
      <point x="252" y="169" type="curve" smooth="yes"/>
      <point x="201" y="168"/>
      <point x="173" y="194"/>
      <point x="173" y="273" type="curve" smooth="yes"/>
      <point x="173" y="526" type="line"/>
      <point x="94" y="526" type="line"/>
      <point x="94" y="355" type="line" smooth="yes"/>
      <point x="94" y="209"/>
      <point x="175" y="106"/>
      <point x="285" y="106" type="curve" smooth="yes"/>
      <point x="368" y="106"/>
      <point x="413" y="179"/>
      <point x="413" y="272" type="curve" smooth="yes"/>
      <point x="413" y="526" type="line"/>
    </contour>
    <contour>
      <point x="506" y="506" type="line"/>
      <point x="478" y="570" type="line"/>
      <point x="15" y="570" type="line"/>
      <point x="43" y="506" type="line"/>
    </contour>
  </outline>
</glyph>
<glyph name="uni091E094D_jadeva" format="1">
  <advance width="757"/>
  <note>
    dNyJa
  </note>
  <outline>
    <contour>
      <point x="288" y="471"/>
      <point x="238" y="459"/>
      <point x="204" y="442" type="curve"/>
      <point x="247" y="383" type="line"/>
      <point x="278" y="396"/>
      <point x="314" y="406"/>
      <point x="343" y="406" type="curve" smooth="yes"/>
      <point x="382" y="406"/>
      <point x="402" y="388"/>
      <point x="402" y="367" type="curve" smooth="yes"/>
      <point x="402" y="339"/>
      <point x="366" y="306"/>
      <point x="296" y="306" type="curve" smooth="yes"/>
      <point x="225" y="306"/>
      <point x="163" y="337"/>
      <point x="120" y="396" type="curve"/>
      <point x="86" y="373" type="line"/>
      <point x="138" y="289"/>
      <point x="217" y="238"/>
      <point x="305" y="238" type="curve" smooth="yes"/>
      <point x="379" y="238"/>
      <point x="445" y="276"/>
      <point x="444" y="352" type="curve" smooth="yes"/>
      <point x="443" y="427"/>
      <point x="386" y="471"/>
      <point x="325" y="471" type="curve" smooth="yes"/>
    </contour>
    <contour>
      <point x="539" y="0" type="line"/>
      <point x="618" y="0" type="line"/>
      <point x="618" y="506" type="line"/>
      <point x="742" y="506" type="line"/>
      <point x="714" y="570" type="line"/>
      <point x="15" y="570" type="line"/>
      <point x="43" y="506" type="line"/>
      <point x="539" y="506" type="line"/>
    </contour>
    <contour>
      <point x="564" y="182" type="line"/>
      <point x="550" y="245" type="line"/>
      <point x="220" y="174" type="line"/>
      <point x="241" y="137" type="line"/>
      <point x="360" y="143"/>
      <point x="406" y="112"/>
      <point x="406" y="80" type="curve" smooth="yes"/>
      <point x="406" y="43"/>
      <point x="370" y="24"/>
      <point x="320" y="24" type="curve" smooth="yes"/>
      <point x="254" y="24"/>
      <point x="164" y="58"/>
      <point x="101" y="131" type="curve"/>
      <point x="72" y="104" type="line"/>
      <point x="136" y="10"/>
      <point x="252" y="-35"/>
      <point x="346" y="-35" type="curve" smooth="yes"/>
      <point x="426" y="-35"/>
      <point x="489" y="-3"/>
      <point x="489" y="60" type="curve" smooth="yes"/>
      <point x="489" y="113"/>
      <point x="448" y="149"/>
      <point x="359" y="161" type="curve"/>
      <point x="376" y="142" type="line"/>
    </contour>
    <contour>
      <point x="414" y="390" type="line"/>
      <point x="414" y="353" type="line"/>
      <point x="581" y="323" type="line"/>
      <point x="581" y="390" type="line"/>
    </contour>
    <contour>
      <point x="581" y="570" type="move" name="top"/>
    </contour>
    <contour>
      <point x="575" y="0" type="move" name="bottom"/>
    </contour>
  </outline>
</glyph>
<glyph name="radeva_uvowelsigndeva" format="1">
  <advance width="538"/>
  <note>
    dRMatraU
  </note>
  <outline>
    <contour>
      <point x="348" y="119" type="line"/>
      <point x="464" y="110"/>
      <point x="512" y="171"/>
      <point x="512" y="236" type="curve" smooth="yes"/>
      <point x="512" y="311"/>
      <point x="453" y="376"/>
      <point x="370" y="376" type="curve" smooth="yes"/>
      <point x="326" y="376"/>
      <point x="276" y="358"/>
      <point x="230" y="312" type="curve"/>
      <point x="270" y="250" type="line"/>
      <point x="307" y="300"/>
      <point x="356" y="323"/>
      <point x="395" y="323" type="curve" smooth="yes"/>
      <point x="437" y="323"/>
      <point x="460" y="300"/>
      <point x="460" y="265" type="curve" smooth="yes"/>
      <point x="460" y="222"/>
      <point x="418" y="185"/>
      <point x="328" y="187" type="curve"/>
    </contour>
    <contour>
      <point x="355" y="570" type="line"/>
      <point x="383" y="506" type="line"/>
      <point x="523" y="506" type="line"/>
      <point x="495" y="570" type="line"/>
    </contour>
    <component base="radeva"/>
    <contour>
      <point x="249" y="570" type="move" name="top"/>
    </contour>
  </outline>
</glyph>
<glyph name="uni0938094D" format="1">
  <advance width="563"/>
  <outline>
    <contour>
      <point x="453" y="246" type="line"/>
      <point x="376" y="190"/>
      <point x="303" y="206"/>
      <point x="224" y="269" type="curve"/>
      <point x="189" y="233" type="line"/>
      <point x="263" y="149"/>
      <point x="375" y="113"/>
      <point x="483" y="171" type="curve"/>
    </contour>
    <component base="radeva" xOffset="-17"/>
    <contour>
      <point x="73" y="0" type="move" name="nukta"/>
    </contour>
  </outline>
</glyph>
<glyph name="uni0924094D_radeva" format="1">
  <advance width="607"/>
  <note>
    dTRa
  </note>
  <outline>
    <contour>
      <point x="458" y="304" type="line"/>
      <point x="96" y="14" type="line"/>
      <point x="154" y="-47" type="line"/>
      <point x="458" y="225" type="line"/>
    </contour>
    <contour>
      <point x="409" y="0" type="line"/>
      <point x="488" y="0" type="line"/>
      <point x="488" y="506" type="line"/>
      <point x="592" y="506" type="line"/>
      <point x="564" y="570" type="line"/>
      <point x="15" y="570" type="line"/>
      <point x="43" y="506" type="line"/>
      <point x="409" y="506" type="line"/>
    </contour>
    <contour>
      <point x="329" y="387"/>
      <point x="237" y="430"/>
      <point x="157" y="430" type="curve" smooth="yes"/>
      <point x="117" y="430"/>
      <point x="79" y="418"/>
      <point x="43" y="396" type="curve"/>
      <point x="76" y="325" type="line"/>
      <point x="106" y="339"/>
      <point x="141" y="348"/>
      <point x="182" y="348" type="curve" smooth="yes"/>
      <point x="249" y="348"/>
      <point x="330" y="325"/>
      <point x="425" y="266" type="curve"/>
      <point x="449" y="300" type="line"/>
    </contour>
    <contour>
      <point x="450" y="570" type="move" name="top"/>
    </contour>
    <contour>
      <point x="450" y="0" type="move" name="bottom"/>
    </contour>
  </outline>
</glyph>
<glyph name="uni0924094D0924094D" format="1">
  <advance width="407"/>
  <note>
    dTT.half
  </note>
  <outline>
    <contour>
      <point x="382" y="333" type="line"/>
      <point x="355" y="369" type="line"/>
      <point x="265" y="369" type="line" smooth="yes"/>
      <point x="154" y="369"/>
      <point x="101" y="317"/>
      <point x="101" y="246" type="curve" smooth="yes"/>
      <point x="101" y="169"/>
      <point x="163" y="71"/>
      <point x="280" y="-7" type="curve"/>
      <point x="307" y="18" type="line"/>
      <point x="229" y="79"/>
      <point x="185" y="167"/>
      <point x="185" y="237" type="curve" smooth="yes"/>
      <point x="185" y="294"/>
      <point x="213" y="333"/>
      <point x="276" y="333" type="curve" smooth="yes"/>
    </contour>
    <contour>
      <point x="382" y="506" type="line"/>
      <point x="354" y="570" type="line"/>
      <point x="15" y="570" type="line"/>
      <point x="43" y="506" type="line"/>
    </contour>
    <contour>
      <point x="447" y="333" type="line"/>
      <point x="419" y="397" type="line"/>
      <point x="15" y="397" type="line"/>
      <point x="43" y="333" type="line"/>
    </contour>
  </outline>
</glyph>
<glyph name="uni0924094D_tadeva" format="1">
  <advance width="637"/>
  <note>
    dTTa
  </note>
  <outline>
    <contour>
      <point x="322" y="333" type="line"/>
      <point x="294" y="397" type="line"/>
      <point x="35" y="397" type="line"/>
      <point x="63" y="333" type="line"/>
    </contour>
    <contour>
      <point x="445" y="333" type="line"/>
      <point x="418" y="397" type="line"/>
      <point x="278" y="397" type="line" smooth="yes"/>
      <point x="180" y="397"/>
      <point x="117" y="359"/>
      <point x="117" y="263" type="curve" smooth="yes"/>
      <point x="117" y="177"/>
      <point x="168" y="82"/>
      <point x="293" y="-7" type="curve"/>
      <point x="320" y="18" type="line"/>
      <point x="242" y="79"/>
      <point x="198" y="167"/>
      <point x="198" y="237" type="curve" smooth="yes"/>
      <point x="198" y="294"/>
      <point x="226" y="333"/>
      <point x="289" y="333" type="curve" smooth="yes"/>
    </contour>
    <contour>
      <point x="498" y="506" type="line"/>
      <point x="622" y="506" type="line"/>
      <point x="594" y="570" type="line"/>
      <point x="15" y="570" type="line"/>
      <point x="43" y="506" type="line"/>
      <point x="419" y="506" type="line"/>
      <point x="419" y="0" type="line"/>
      <point x="498" y="0" type="line"/>
    </contour>
    <contour>
      <point x="462" y="570" type="move" name="top"/>
    </contour>
    <contour>
      <point x="462" y="0" type="move" name="bottom"/>
    </contour>
  </outline>
</glyph>
<glyph name="uni091F094D_tthadeva" format="1">
  <advance width="579"/>
  <note>
    dTtTtha
  </note>
  <outline>
    <contour>
      <point x="564" y="506" type="line"/>
      <point x="536" y="570" type="line"/>
      <point x="15" y="570" type="line"/>
      <point x="43" y="506" type="line"/>
    </contour>
    <contour>
      <point x="404" y="544" type="line"/>
      <point x="317" y="544" type="line"/>
      <point x="317" y="460" type="line"/>
      <point x="250" y="460" type="line"/>
      <point x="137.857" y="460"/>
      <point x="59" y="409"/>
      <point x="59" y="316" type="curve" smooth="yes"/>
      <point x="59" y="212"/>
      <point x="157" y="122"/>
      <point x="302" y="122" type="curve" smooth="yes"/>
      <point x="354" y="122"/>
      <point x="408.103" y="133.59"/>
      <point x="506" y="200" type="curve"/>
      <point x="442" y="265" type="line"/>
      <point x="345.765" y="194.245"/>
      <point x="296.675" y="179"/>
      <point x="246" y="179" type="curve"/>
      <point x="165.311" y="179"/>
      <point x="118" y="217"/>
      <point x="118" y="280" type="curve" smooth="yes"/>
      <point x="118" y="345"/>
      <point x="168.289" y="384"/>
      <point x="249" y="384" type="curve"/>
      <point x="404" y="384" type="line"/>
    </contour>
    <contour>
      <point x="404" y="154" type="line"/>
      <point x="317" y="154" type="line"/>
      <point x="317" y="70" type="line"/>
      <point x="404" y="14" type="line"/>
    </contour>
    <contour>
      <point x="309" y="70" type="curve" smooth="yes"/>
      <point x="247" y="70" type="line" smooth="yes"/>
      <point x="118" y="70"/>
      <point x="59" y="1"/>
      <point x="59" y="-74" type="curve" smooth="yes"/>
      <point x="59" y="-164"/>
      <point x="141" y="-269"/>
      <point x="285" y="-269" type="curve" smooth="yes"/>
      <point x="393" y="-269"/>
      <point x="505" y="-226"/>
      <point x="505" y="-116" type="curve" smooth="yes"/>
      <point x="505" y="-24"/>
      <point x="410" y="70"/>
    </contour>
    <contour>
      <point x="164" y="-210"/>
      <point x="117" y="-176"/>
      <point x="117" y="-109" type="curve" smooth="yes"/>
      <point x="117" y="-54"/>
      <point x="165" y="-5"/>
      <point x="255" y="-5" type="curve" smooth="yes"/>
      <point x="362" y="-5" type="line"/>
      <point x="422" y="-5"/>
      <point x="439" y="-32"/>
      <point x="439" y="-82" type="curve" smooth="yes"/>
      <point x="439" y="-168"/>
      <point x="351" y="-210"/>
      <point x="261" y="-210" type="curve" smooth="yes"/>
    </contour>
    <contour>
      <point x="361" y="570" type="move" name="top"/>
    </contour>
    <contour>
      <point x="371" y="-284" type="move" name="bottom"/>
    </contour>
  </outline>
</glyph>
<glyph name="uni0920094D092F" format="1">
  <advance width="1124"/>
  <note>
    dTthYa
  </note>
  <outline>
    <contour>
      <point x="652" y="570" type="line"/>
      <point x="15" y="570" type="line"/>
      <point x="43" y="506" type="line"/>
      <point x="381" y="506" type="line"/>
      <point x="381" y="410" type="line"/>
      <point x="460" y="410" type="line"/>
      <point x="460" y="506" type="line"/>
      <point x="675" y="506" type="line"/>
    </contour>
    <contour>
      <point x="504" y="332"/>
      <point x="413" y="435"/>
      <point x="302" y="425" type="curve"/>
      <point x="240" y="419" type="line" smooth="yes"/>
      <point x="112" y="408"/>
      <point x="59" y="334"/>
      <point x="66" y="260" type="curve" smooth="yes"/>
      <point x="73" y="170"/>
      <point x="164" y="72"/>
      <point x="333" y="87" type="curve" smooth="yes"/>
      <point x="451" y="98"/>
      <point x="520" y="151"/>
      <point x="512" y="240" type="curve" smooth="yes"/>
    </contour>
    <contour>
      <point x="202" y="135"/>
      <point x="136" y="163"/>
      <point x="130" y="230" type="curve" smooth="yes"/>
      <point x="126" y="285"/>
      <point x="165" y="338"/>
      <point x="255" y="345" type="curve" smooth="yes"/>
      <point x="351" y="354" type="line"/>
      <point x="411" y="359"/>
      <point x="441" y="325"/>
      <point x="445" y="280" type="curve" smooth="yes"/>
      <point x="452" y="199"/>
      <point x="368" y="150"/>
      <point x="281" y="142" type="curve" smooth="yes"/>
    </contour>
    <contour>
      <point x="521" y="432" type="line"/>
      <point x="311" y="425" type="line"/>
      <point x="399" y="354" type="line"/>
      <point x="518" y="362" type="line"/>
    </contour>
    <component base="uni092F.post" xOffset="529"/>
  </outline>
</glyph>
<glyph name="uni0935094D" format="1">
  <advance width="364"/>
  <outline>
    <contour>
      <point x="35" y="570" type="line"/>
      <point x="63" y="506" type="line"/>
      <point x="392" y="506" type="line"/>
      <point x="364" y="570" type="line"/>
    </contour>
    <contour>
      <point x="343" y="388"/>
      <point x="273" y="416"/>
      <point x="210" y="416" type="curve" smooth="yes"/>
      <point x="130" y="416"/>
      <point x="63" y="371"/>
      <point x="63" y="272" type="curve" smooth="yes"/>
      <point x="63" y="134"/>
      <point x="159" y="75"/>
      <point x="270" y="75" type="curve" smooth="yes"/>
      <point x="337" y="75"/>
      <point x="402" y="97"/>
      <point x="444" y="134" type="curve"/>
      <point x="414" y="208" type="line"/>
      <point x="372" y="172"/>
      <point x="296" y="147"/>
      <point x="231" y="147" type="curve" smooth="yes"/>
      <point x="167" y="147"/>
      <point x="117" y="171"/>
      <point x="117" y="233" type="curve" smooth="yes"/>
      <point x="117" y="306"/>
      <point x="178" y="336"/>
      <point x="248" y="336" type="curve" smooth="yes"/>
      <point x="292" y="336"/>
      <point x="339" y="325"/>
      <point x="378" y="305" type="curve"/>
      <point x="395" y="339" type="line"/>
    </contour>
  </outline>
</glyph>
<glyph name="uni0935094D0930094D" format="1">
  <advance width="364"/>
  <note>
    dVR.half
  </note>
  <outline>
    <contour>
      <point x="123" y="-10" type="line"/>
      <point x="167" y="-67" type="line"/>
      <point x="427" y="121" type="line"/>
      <point x="393" y="161" type="line"/>
    </contour>
    <component base="uni0935094D"/>
  </outline>
</glyph>
